<?xml version="1.0" encoding="utf-8"?>
<!-- Generator: Adobe Illustrator 24.0.2, SVG Export Plug-In . SVG Version: 6.00 Build 0)  -->
<svg version="1.1" id="Layer_1" xmlns="http://www.w3.org/2000/svg" xmlns:xlink="http://www.w3.org/1999/xlink" x="0px" y="0px"
	 viewBox="0 0 598.27 204.12" style="enable-background:new 0 0 598.27 204.12;" xml:space="preserve">
<style type="text/css">
	.st0{fill:url(#SVGID_1_);}
	.st1{fill:url(#SVGID_2_);}
	.st2{fill:url(#SVGID_3_);}
	.st3{fill:url(#SVGID_4_);}
	.st4{fill:none;stroke:url(#SVGID_5_);stroke-width:1.1;stroke-miterlimit:10;}
	.st5{fill:url(#SVGID_6_);}
	.st6{fill:url(#SVGID_7_);}
	.st7{fill:url(#SVGID_8_);}
	.st8{fill:url(#SVGID_9_);}
	.st9{fill:none;stroke:url(#SVGID_10_);stroke-width:1.0997;stroke-miterlimit:10;}
	.st10{fill:none;stroke:url(#SVGID_11_);stroke-width:1.0997;stroke-miterlimit:10;}
	.st11{fill:none;stroke:url(#SVGID_12_);stroke-width:1.0997;stroke-miterlimit:10;}
	.st12{fill:none;stroke:url(#SVGID_13_);stroke-width:1.0997;stroke-miterlimit:10;}
	.st13{fill:url(#SVGID_14_);}
	.st14{fill:url(#SVGID_15_);}
	.st15{fill:url(#SVGID_16_);}
	.st16{fill:url(#SVGID_17_);}
	.st17{fill:url(#SVGID_18_);}
	.st18{fill:url(#SVGID_19_);}
	.st19{fill:url(#SVGID_20_);}
	.st20{fill:url(#SVGID_21_);}
	.st21{fill:url(#SVGID_22_);}
	.st22{fill:url(#SVGID_23_);}
	.st23{fill:url(#SVGID_24_);}
	.st24{fill:url(#SVGID_25_);}
	.st25{fill:url(#SVGID_26_);}
	.st26{fill:url(#SVGID_27_);}
	.st27{fill:url(#SVGID_28_);}
	.st28{fill:url(#SVGID_29_);}
	.st29{fill:url(#SVGID_30_);}
	.st30{fill:#B7262B;}
	.st31{fill:#FFFDFC;}
	.st32{fill:#FEF8F5;}
	.st33{fill:#E42C29;}
</style>
<g>
	<g>
		<g>
			<linearGradient id="SVGID_1_" gradientUnits="userSpaceOnUse" x1="503.9988" y1="34.218" x2="503.9988" y2="100.9379">
				<stop  offset="0" style="stop-color:#6D4D9F"/>
				<stop  offset="0.1983" style="stop-color:#654794"/>
				<stop  offset="0.5162" style="stop-color:#52397E"/>
				<stop  offset="0.912" style="stop-color:#342561"/>
				<stop  offset="1" style="stop-color:#2D205A"/>
			</linearGradient>
			<path class="st0" d="M507.95,36.93c6.06,0,10.97,4.91,10.97,10.96v40.72c0,1.07-0.92,1.99-1.99,1.99h-1.99
				c-1.07,0-1.99-0.92-1.99-1.99V76.04c0-1.84-1.46-3.3-3.3-3.3h-11.27c-1.84,0-3.3,1.46-3.3,3.3v12.58c0,1.07-0.92,1.99-1.99,1.99
				h-1.99c-1.07,0-1.99-0.92-1.99-1.99V47.9c0-6.06,4.91-10.96,10.97-10.96H507.95z M498.36,66.76h11.27c1.84,0,3.3-1.53,3.3-3.3
				V47.9c0-2.76-2.22-4.98-4.99-4.98h-7.9c-2.76,0-4.98,2.22-4.98,4.98v15.57C495.07,65.23,496.52,66.76,498.36,66.76z"/>
			<linearGradient id="SVGID_2_" gradientUnits="userSpaceOnUse" x1="541.3539" y1="34.218" x2="541.3539" y2="100.9379">
				<stop  offset="0" style="stop-color:#6D4D9F"/>
				<stop  offset="0.1983" style="stop-color:#654794"/>
				<stop  offset="0.5162" style="stop-color:#52397E"/>
				<stop  offset="0.912" style="stop-color:#342561"/>
				<stop  offset="1" style="stop-color:#2D205A"/>
			</linearGradient>
			<path class="st1" d="M550.98,36.93c1.07,0,1.99,0.92,1.99,1.99v1.99c0,1.07-0.92,2-1.99,2H537.4c-2.76,0-4.98,2.22-4.98,4.98v7.9
				c0,2.76,2.22,4.98,4.98,4.98h7.9c5.98,0,10.97,4.99,10.97,10.97v7.9c0,6.06-4.91,10.97-10.97,10.97h-14.26
				c-1.07,0-1.92-0.92-1.92-1.99v-2c0-1.07,0.84-1.99,1.92-1.99h14.26c2.76,0,4.99-2.22,4.99-4.99v-7.9c0-2.76-2.22-4.99-4.99-4.99
				h-7.9c-6.06,0-10.97-4.91-10.97-10.96v-7.9c0-6.06,4.91-10.96,10.97-10.96H550.98z"/>
			<linearGradient id="SVGID_3_" gradientUnits="userSpaceOnUse" x1="578.4769" y1="34.218" x2="578.4769" y2="100.9379">
				<stop  offset="0" style="stop-color:#6D4D9F"/>
				<stop  offset="0.1983" style="stop-color:#654794"/>
				<stop  offset="0.5162" style="stop-color:#52397E"/>
				<stop  offset="0.912" style="stop-color:#342561"/>
				<stop  offset="1" style="stop-color:#2D205A"/>
			</linearGradient>
			<path class="st2" d="M591.4,36.93c1.07,0,1.99,0.92,1.99,1.99v49.69c0,1.07-0.92,1.99-1.99,1.99h-1.99
				c-1.07,0-1.99-0.92-1.99-1.99V70.06c0-1.84-1.46-3.3-3.3-3.3h-11.27c-1.84,0-3.3,1.46-3.3,3.3v18.56c0,1.07-0.92,1.99-1.99,1.99
				h-1.99c-1.07,0-1.99-0.92-1.99-1.99V38.93c0-1.07,0.92-1.99,1.99-1.99h1.99c1.07,0,1.99,0.92,1.99,1.99v18.56
				c0,1.84,1.46,3.3,3.3,3.3h11.27c1.84,0,3.3-1.46,3.3-3.3V38.93c0-1.07,0.92-1.99,1.99-1.99H591.4z"/>
			<g>
				<linearGradient id="SVGID_4_" gradientUnits="userSpaceOnUse" x1="284.0963" y1="90.6146" x2="284.0963" y2="36.9345">
					<stop  offset="0" style="stop-color:#D1D3D4"/>
					<stop  offset="0.1229" style="stop-color:#CACCCE"/>
					<stop  offset="0.3151" style="stop-color:#B8BABC"/>
					<stop  offset="0.5524" style="stop-color:#9B9DA0"/>
					<stop  offset="0.8232" style="stop-color:#75777A"/>
					<stop  offset="1" style="stop-color:#58595B"/>
				</linearGradient>
				<path class="st3" d="M308.51,49.05L308.51,49.05l0.01-12.11h-12.34h-3.66h-1.17c-2.45,0-4.91,0.77-6.9,2.15
					c-0.23,0.08-0.46,0.08-0.69,0c-2.07-1.38-4.45-2.15-6.9-2.15h-4.83c-6.83,0-12.35,5.52-12.35,12.35v39.49
					c0,1,0.77,1.84,1.76,1.84h6.67c1,0,1.84-0.84,1.84-1.84V49.28c0-1.15,0.92-2.07,2.07-2.07h4.83c1.15,0,2.15,0.92,2.15,2.07
					v39.49c0,1,0.77,1.84,1.76,1.84h6.67c1,0,1.76-0.84,1.76-1.84V49.28c0-1.15,1-2.07,2.15-2.07h4.83c1.15,0,2.07,0.92,2.07,2.07
					v39.49c0,1,0.84,1.84,1.84,1.84h6.6c1,0,1.84-0.84,1.84-1.84V49.28C308.52,49.2,308.51,49.13,308.51,49.05z"/>
				<linearGradient id="SVGID_5_" gradientUnits="userSpaceOnUse" x1="284.0963" y1="91.1646" x2="284.0963" y2="36.3845">
					<stop  offset="0" style="stop-color:#E4E5E6"/>
					<stop  offset="0.2064" style="stop-color:#DDDFE0"/>
					<stop  offset="0.5289" style="stop-color:#CBCDCF"/>
					<stop  offset="0.925" style="stop-color:#ADAFB2"/>
					<stop  offset="1" style="stop-color:#A7A9AC"/>
				</linearGradient>
				<path class="st4" d="M308.51,49.05L308.51,49.05l0.01-12.11h-12.34h-3.66h-1.17c-2.45,0-4.91,0.77-6.9,2.15
					c-0.23,0.08-0.46,0.08-0.69,0c-2.07-1.38-4.45-2.15-6.9-2.15h-4.83c-6.83,0-12.35,5.52-12.35,12.35v39.49
					c0,1,0.77,1.84,1.76,1.84h6.67c1,0,1.84-0.84,1.84-1.84V49.28c0-1.15,0.92-2.07,2.07-2.07h4.83c1.15,0,2.15,0.92,2.15,2.07
					v39.49c0,1,0.77,1.84,1.76,1.84h6.67c1,0,1.76-0.84,1.76-1.84V49.28c0-1.15,1-2.07,2.15-2.07h4.83c1.15,0,2.07,0.92,2.07,2.07
					v39.49c0,1,0.84,1.84,1.84,1.84h6.6c1,0,1.84-0.84,1.84-1.84V49.28C308.52,49.2,308.51,49.13,308.51,49.05z"/>
				<linearGradient id="SVGID_6_" gradientUnits="userSpaceOnUse" x1="237.3115" y1="90.6146" x2="237.3115" y2="36.9345">
					<stop  offset="0" style="stop-color:#D1D3D4"/>
					<stop  offset="0.1229" style="stop-color:#CACCCE"/>
					<stop  offset="0.3151" style="stop-color:#B8BABC"/>
					<stop  offset="0.5524" style="stop-color:#9B9DA0"/>
					<stop  offset="0.8232" style="stop-color:#75777A"/>
					<stop  offset="1" style="stop-color:#58595B"/>
				</linearGradient>
				<path class="st5" d="M248.85,36.93c1,0,1.76,0.84,1.76,1.84v6.59c0,1-0.77,1.84-1.76,1.84h-14.8c-1.15,0-2.07,0.92-2.07,2.07
					v7.29c0,1.15,0.92,2.07,2.07,2.07h6.44c6.82,0,12.42,5.52,12.42,12.35v7.29c0,6.82-5.6,12.35-12.42,12.35h-15.34
					c-1,0-1.84-0.84-1.84-1.84v-6.59c0-1,0.84-1.84,1.84-1.84h15.34c1.23,0,2.15-0.92,2.15-2.07v-7.29c0-1.15-0.92-2.07-2.15-2.07
					h-6.44c-6.82,0-12.35-5.52-12.35-12.35v-7.29c0-6.83,5.52-12.35,12.35-12.35H248.85z"/>
				<linearGradient id="SVGID_7_" gradientUnits="userSpaceOnUse" x1="332.7261" y1="90.6146" x2="332.7261" y2="36.9345">
					<stop  offset="0" style="stop-color:#D1D3D4"/>
					<stop  offset="0.1229" style="stop-color:#CACCCE"/>
					<stop  offset="0.3151" style="stop-color:#B8BABC"/>
					<stop  offset="0.5524" style="stop-color:#9B9DA0"/>
					<stop  offset="0.8232" style="stop-color:#75777A"/>
					<stop  offset="1" style="stop-color:#58595B"/>
				</linearGradient>
				<path class="st6" d="M336.29,36.93c6.82,0,12.42,5.52,12.42,12.35v39.49c0,1-0.84,1.84-1.84,1.84h-6.6c-1,0-1.84-0.84-1.84-1.84
					V74.89c0-0.31-0.31-0.54-0.61-0.54h-10.28c-0.31,0-0.54,0.23-0.54,0.54v13.88c0,1-0.84,1.84-1.84,1.84h-6.67
					c-1,0-1.76-0.84-1.76-1.84V49.28c0-6.83,5.52-12.35,12.35-12.35H336.29z M327.01,63.47c0,0.31,0.23,0.61,0.54,0.61h10.28
					c0.31,0,0.61-0.31,0.61-0.61V49.28c0-1.15-0.92-2.07-2.15-2.07h-7.21c-1.15,0-2.07,0.92-2.07,2.07V63.47z"/>
				<linearGradient id="SVGID_8_" gradientUnits="userSpaceOnUse" x1="373.2923" y1="91.6819" x2="373.2923" y2="36.9345">
					<stop  offset="0" style="stop-color:#D1D3D4"/>
					<stop  offset="0.1229" style="stop-color:#CACCCE"/>
					<stop  offset="0.3151" style="stop-color:#B8BABC"/>
					<stop  offset="0.5524" style="stop-color:#9B9DA0"/>
					<stop  offset="0.8232" style="stop-color:#75777A"/>
					<stop  offset="1" style="stop-color:#58595B"/>
				</linearGradient>
				<path class="st7" d="M376.33,36.93c6.82,0,12.42,5.52,12.42,12.35v12.65c0,3.99-1.84,7.59-5.06,9.97
					c-0.15,0.08-0.23,0.31-0.23,0.46v0.23l6.21,13.88c0.38,0.84-0.08,1.92-0.92,2.38l-6.14,2.68c-0.84,0.38-1.92,0-2.38-0.92
					l-7.06-15.95c-0.08-0.23-0.31-0.31-0.54-0.31h-5.06c-0.31,0-0.54,0.23-0.54,0.61v13.8c0,1-0.84,1.84-1.84,1.84h-6.67
					c-1,0-1.76-0.84-1.76-1.84v-50c0-1,0.77-1.84,1.76-1.84H376.33z M367.05,63.47c0,0.31,0.23,0.61,0.54,0.61h8.74
					c1.23,0,2.15-0.92,2.15-2.15V49.28c0-1.15-0.92-2.07-2.15-2.07h-8.74c-0.31,0-0.54,0.23-0.54,0.61V63.47z"/>
				<linearGradient id="SVGID_9_" gradientUnits="userSpaceOnUse" x1="410.0416" y1="90.6146" x2="410.0416" y2="36.9345">
					<stop  offset="0" style="stop-color:#D1D3D4"/>
					<stop  offset="0.1229" style="stop-color:#CACCCE"/>
					<stop  offset="0.3151" style="stop-color:#B8BABC"/>
					<stop  offset="0.5524" style="stop-color:#9B9DA0"/>
					<stop  offset="0.8232" style="stop-color:#75777A"/>
					<stop  offset="1" style="stop-color:#58595B"/>
				</linearGradient>
				<path class="st8" d="M424.19,36.93c1,0,1.84,0.84,1.84,1.84v6.59c0,1-0.84,1.84-1.84,1.84h-8.44c-0.31,0-0.61,0.23-0.61,0.61
					v40.95c0,1-0.77,1.84-1.76,1.84h-6.67c-1,0-1.84-0.84-1.84-1.84V47.82c0-0.38-0.23-0.61-0.54-0.61h-8.51
					c-1,0-1.76-0.84-1.76-1.84v-6.59c0-1,0.77-1.84,1.76-1.84H424.19z"/>
				<linearGradient id="SVGID_10_" gradientUnits="userSpaceOnUse" x1="237.3115" y1="91.1644" x2="237.3115" y2="36.3847">
					<stop  offset="0" style="stop-color:#E4E5E6"/>
					<stop  offset="0.2064" style="stop-color:#DDDFE0"/>
					<stop  offset="0.5289" style="stop-color:#CBCDCF"/>
					<stop  offset="0.925" style="stop-color:#ADAFB2"/>
					<stop  offset="1" style="stop-color:#A7A9AC"/>
				</linearGradient>
				<path class="st9" d="M248.85,36.93c1,0,1.76,0.84,1.76,1.84v6.59c0,1-0.77,1.84-1.76,1.84h-14.8c-1.15,0-2.07,0.92-2.07,2.07
					v7.29c0,1.15,0.92,2.07,2.07,2.07h6.44c6.82,0,12.42,5.52,12.42,12.35v7.29c0,6.82-5.6,12.35-12.42,12.35h-15.34
					c-1,0-1.84-0.84-1.84-1.84v-6.59c0-1,0.84-1.84,1.84-1.84h15.34c1.23,0,2.15-0.92,2.15-2.07v-7.29c0-1.15-0.92-2.07-2.15-2.07
					h-6.44c-6.82,0-12.35-5.52-12.35-12.35v-7.29c0-6.83,5.52-12.35,12.35-12.35H248.85z"/>
				<linearGradient id="SVGID_11_" gradientUnits="userSpaceOnUse" x1="332.7261" y1="91.1644" x2="332.7261" y2="36.3847">
					<stop  offset="0" style="stop-color:#E4E5E6"/>
					<stop  offset="0.2064" style="stop-color:#DDDFE0"/>
					<stop  offset="0.5289" style="stop-color:#CBCDCF"/>
					<stop  offset="0.925" style="stop-color:#ADAFB2"/>
					<stop  offset="1" style="stop-color:#A7A9AC"/>
				</linearGradient>
				<path class="st10" d="M336.29,36.93c6.82,0,12.42,5.52,12.42,12.35v39.49c0,1-0.84,1.84-1.84,1.84h-6.6
					c-1,0-1.84-0.84-1.84-1.84V74.89c0-0.31-0.31-0.54-0.61-0.54h-10.28c-0.31,0-0.54,0.23-0.54,0.54v13.88c0,1-0.84,1.84-1.84,1.84
					h-6.67c-1,0-1.76-0.84-1.76-1.84V49.28c0-6.83,5.52-12.35,12.35-12.35H336.29z M327.01,63.47c0,0.31,0.23,0.61,0.54,0.61h10.28
					c0.31,0,0.61-0.31,0.61-0.61V49.28c0-1.15-0.92-2.07-2.15-2.07h-7.21c-1.15,0-2.07,0.92-2.07,2.07V63.47z"/>
				<linearGradient id="SVGID_12_" gradientUnits="userSpaceOnUse" x1="373.2923" y1="92.2318" x2="373.2923" y2="36.3847">
					<stop  offset="0" style="stop-color:#E4E5E6"/>
					<stop  offset="0.2064" style="stop-color:#DDDFE0"/>
					<stop  offset="0.5289" style="stop-color:#CBCDCF"/>
					<stop  offset="0.925" style="stop-color:#ADAFB2"/>
					<stop  offset="1" style="stop-color:#A7A9AC"/>
				</linearGradient>
				<path class="st11" d="M376.33,36.93c6.82,0,12.42,5.52,12.42,12.35v12.65c0,3.99-1.84,7.59-5.06,9.97
					c-0.15,0.08-0.23,0.31-0.23,0.46v0.23l6.21,13.88c0.38,0.84-0.08,1.92-0.92,2.38l-6.14,2.68c-0.84,0.38-1.92,0-2.38-0.92
					l-7.06-15.95c-0.08-0.23-0.31-0.31-0.54-0.31h-5.06c-0.31,0-0.54,0.23-0.54,0.61v13.8c0,1-0.84,1.84-1.84,1.84h-6.67
					c-1,0-1.76-0.84-1.76-1.84v-50c0-1,0.77-1.84,1.76-1.84H376.33z M367.05,63.47c0,0.31,0.23,0.61,0.54,0.61h8.74
					c1.23,0,2.15-0.92,2.15-2.15V49.28c0-1.15-0.92-2.07-2.15-2.07h-8.74c-0.31,0-0.54,0.23-0.54,0.61V63.47z"/>
				<linearGradient id="SVGID_13_" gradientUnits="userSpaceOnUse" x1="410.0416" y1="91.1644" x2="410.0416" y2="36.3847">
					<stop  offset="0" style="stop-color:#E4E5E6"/>
					<stop  offset="0.2064" style="stop-color:#DDDFE0"/>
					<stop  offset="0.5289" style="stop-color:#CBCDCF"/>
					<stop  offset="0.925" style="stop-color:#ADAFB2"/>
					<stop  offset="1" style="stop-color:#A7A9AC"/>
				</linearGradient>
				<path class="st12" d="M424.19,36.93c1,0,1.84,0.84,1.84,1.84v6.59c0,1-0.84,1.84-1.84,1.84h-8.44c-0.31,0-0.61,0.23-0.61,0.61
					v40.95c0,1-0.77,1.84-1.76,1.84h-6.67c-1,0-1.84-0.84-1.84-1.84V47.82c0-0.38-0.23-0.61-0.54-0.61h-8.51
					c-1,0-1.76-0.84-1.76-1.84v-6.59c0-1,0.77-1.84,1.76-1.84H424.19z"/>
			</g>
			<linearGradient id="SVGID_14_" gradientUnits="userSpaceOnUse" x1="456.7888" y1="34.218" x2="456.7888" y2="100.9379">
				<stop  offset="0" style="stop-color:#6D4D9F"/>
				<stop  offset="0.1983" style="stop-color:#654794"/>
				<stop  offset="0.5162" style="stop-color:#52397E"/>
				<stop  offset="0.912" style="stop-color:#342561"/>
				<stop  offset="1" style="stop-color:#2D205A"/>
			</linearGradient>
			<path class="st13" d="M443.22,90.61h5.03h0.26c2.15,0,4.29-0.61,6.06-1.84c1.15-0.77,2.61-0.77,3.76,0
				c1.76,1.23,3.91,1.84,6.06,1.84h5.98c6.06,0,10.97-4.91,10.97-10.97V38.93c0-1.07-0.92-1.99-1.99-1.99h-1.99
				c-1.15,0-1.99,0.92-1.99,1.99v40.72c0,2.76-2.22,4.99-4.98,4.99h-5.98c-2.76,0-4.98-2.22-4.98-4.99V38.93
				c0-1.07-0.84-1.99-1.99-1.99h-1.99c-1.07,0-1.92,0.92-1.92,1.99v40.72c0,2.76-2.3,4.99-4.99,4.99h-5.29
				c-2.76,0-4.98-2.22-4.98-4.99V38.93c0-1.07-0.92-1.99-1.99-1.99h-1.99c-1.07,0-1.99,0.92-1.99,1.99V78.5v1.15v10.97H443.22z"/>
		</g>
		<g>
			<g>
				<linearGradient id="SVGID_15_" gradientUnits="userSpaceOnUse" x1="229.7894" y1="103.8507" x2="229.7894" y2="127.1992">
					<stop  offset="0" style="stop-color:#6D4D9F"/>
					<stop  offset="0.1983" style="stop-color:#654794"/>
					<stop  offset="0.5162" style="stop-color:#52397E"/>
					<stop  offset="0.912" style="stop-color:#342561"/>
					<stop  offset="1" style="stop-color:#2D205A"/>
				</linearGradient>
				<path class="st14" d="M230.32,105.56c3.84,0,6.09,2.62,6.09,5.75c0,3.14-2.25,5.75-6.09,5.75h-3.55v6.95h-3.6v-18.45H230.32z
					 M226.77,108.77v5.08h3.37c1.63,0,2.67-1.04,2.67-2.54c0-1.53-1.04-2.54-2.67-2.54H226.77z"/>
				<linearGradient id="SVGID_16_" gradientUnits="userSpaceOnUse" x1="248.3494" y1="103.8507" x2="248.3494" y2="127.1992">
					<stop  offset="0" style="stop-color:#6D4D9F"/>
					<stop  offset="0.1983" style="stop-color:#654794"/>
					<stop  offset="0.5162" style="stop-color:#52397E"/>
					<stop  offset="0.912" style="stop-color:#342561"/>
					<stop  offset="1" style="stop-color:#2D205A"/>
				</linearGradient>
				<path class="st15" d="M254.43,108.77h-8.55v4.33h7.31v3.21h-7.31v4.48h8.55v3.21h-12.16v-18.45h12.16V108.77z"/>
				<linearGradient id="SVGID_17_" gradientUnits="userSpaceOnUse" x1="266.4745" y1="103.8507" x2="266.4745" y2="127.1992">
					<stop  offset="0" style="stop-color:#6D4D9F"/>
					<stop  offset="0.1983" style="stop-color:#654794"/>
					<stop  offset="0.5162" style="stop-color:#52397E"/>
					<stop  offset="0.912" style="stop-color:#342561"/>
					<stop  offset="1" style="stop-color:#2D205A"/>
				</linearGradient>
				<path class="st16" d="M273.1,108.77h-4.82v15.24h-3.6v-15.24h-4.82v-3.21h13.24V108.77z"/>
				<linearGradient id="SVGID_18_" gradientUnits="userSpaceOnUse" x1="339.6709" y1="103.8507" x2="339.6709" y2="127.1992">
					<stop  offset="0" style="stop-color:#6D4D9F"/>
					<stop  offset="0.1983" style="stop-color:#654794"/>
					<stop  offset="0.5162" style="stop-color:#52397E"/>
					<stop  offset="0.912" style="stop-color:#342561"/>
					<stop  offset="1" style="stop-color:#2D205A"/>
				</linearGradient>
				<path class="st17" d="M346.46,111.24h-3.65c-0.36-1.5-1.32-2.62-3.11-2.62c-0.98,0-1.79,0.36-2.31,0.96
					c-0.67,0.78-0.91,1.68-0.91,5.21c0,3.52,0.23,4.43,0.91,5.21c0.52,0.6,1.32,0.96,2.31,0.96c1.79,0,2.75-1.11,3.11-2.62h3.65
					c-0.65,3.86-3.32,5.83-6.76,5.83c-2.13,0-3.68-0.7-4.95-1.94c-1.84-1.84-1.87-3.91-1.87-7.44c0-3.52,0.03-5.6,1.87-7.44
					c1.27-1.24,2.82-1.94,4.95-1.94C343.14,105.4,345.81,107.37,346.46,111.24z"/>
				<linearGradient id="SVGID_19_" gradientUnits="userSpaceOnUse" x1="358.838" y1="103.8507" x2="358.838" y2="127.1992">
					<stop  offset="0" style="stop-color:#6D4D9F"/>
					<stop  offset="0.1983" style="stop-color:#654794"/>
					<stop  offset="0.5162" style="stop-color:#52397E"/>
					<stop  offset="0.912" style="stop-color:#342561"/>
					<stop  offset="1" style="stop-color:#2D205A"/>
				</linearGradient>
				<path class="st18" d="M363.79,107.35c1.84,1.81,1.87,3.91,1.87,7.44c0,3.52-0.03,5.62-1.87,7.44c-1.27,1.24-2.82,1.94-4.95,1.94
					c-2.13,0-3.68-0.7-4.95-1.94c-1.84-1.84-1.87-3.91-1.87-7.44c0-3.52,0.03-5.6,1.87-7.44c1.27-1.24,2.82-1.94,4.95-1.94
					C360.96,105.4,362.52,106.1,363.79,107.35z M356.53,109.6c-0.7,0.78-0.91,1.66-0.91,5.18c0,3.52,0.21,4.38,0.91,5.16
					c0.52,0.6,1.32,1.01,2.31,1.01c0.98,0,1.79-0.41,2.31-1.01c0.7-0.78,0.91-1.63,0.91-5.16c0-3.52-0.21-4.41-0.91-5.18
					c-0.52-0.6-1.32-0.98-2.31-0.98C357.85,108.62,357.05,109.01,356.53,109.6z"/>
				<linearGradient id="SVGID_20_" gradientUnits="userSpaceOnUse" x1="380.394" y1="103.8507" x2="380.394" y2="127.1992">
					<stop  offset="0" style="stop-color:#6D4D9F"/>
					<stop  offset="0.1983" style="stop-color:#654794"/>
					<stop  offset="0.5162" style="stop-color:#52397E"/>
					<stop  offset="0.912" style="stop-color:#342561"/>
					<stop  offset="1" style="stop-color:#2D205A"/>
				</linearGradient>
				<path class="st19" d="M388.75,124.01h-3.6v-10.73l-3.53,6.56h-2.44l-3.55-6.56v10.73h-3.6v-18.45h3.55l4.82,9.56l4.79-9.56h3.55
					V124.01z"/>
				<linearGradient id="SVGID_21_" gradientUnits="userSpaceOnUse" x1="402.2947" y1="103.8507" x2="402.2947" y2="127.1992">
					<stop  offset="0" style="stop-color:#6D4D9F"/>
					<stop  offset="0.1983" style="stop-color:#654794"/>
					<stop  offset="0.5162" style="stop-color:#52397E"/>
					<stop  offset="0.912" style="stop-color:#342561"/>
					<stop  offset="1" style="stop-color:#2D205A"/>
				</linearGradient>
				<path class="st20" d="M402.83,105.56c3.84,0,6.09,2.62,6.09,5.75c0,3.14-2.25,5.75-6.09,5.75h-3.55v6.95h-3.6v-18.45H402.83z
					 M399.28,108.77v5.08h3.37c1.63,0,2.67-1.04,2.67-2.54c0-1.53-1.04-2.54-2.67-2.54H399.28z"/>
				<linearGradient id="SVGID_22_" gradientUnits="userSpaceOnUse" x1="420.7645" y1="103.8507" x2="420.7645" y2="127.1992">
					<stop  offset="0" style="stop-color:#6D4D9F"/>
					<stop  offset="0.1983" style="stop-color:#654794"/>
					<stop  offset="0.5162" style="stop-color:#52397E"/>
					<stop  offset="0.912" style="stop-color:#342561"/>
					<stop  offset="1" style="stop-color:#2D205A"/>
				</linearGradient>
				<path class="st21" d="M418.38,120.8h8.37v3.21h-11.97v-18.45h3.6V120.8z"/>
				<linearGradient id="SVGID_23_" gradientUnits="userSpaceOnUse" x1="438.6279" y1="103.8507" x2="438.6279" y2="127.1992">
					<stop  offset="0" style="stop-color:#6D4D9F"/>
					<stop  offset="0.1983" style="stop-color:#654794"/>
					<stop  offset="0.5162" style="stop-color:#52397E"/>
					<stop  offset="0.912" style="stop-color:#342561"/>
					<stop  offset="1" style="stop-color:#2D205A"/>
				</linearGradient>
				<path class="st22" d="M444.71,108.77h-8.55v4.33h7.31v3.21h-7.31v4.48h8.55v3.21h-12.16v-18.45h12.16V108.77z"/>
				<linearGradient id="SVGID_24_" gradientUnits="userSpaceOnUse" x1="456.7529" y1="103.8507" x2="456.7529" y2="127.1992">
					<stop  offset="0" style="stop-color:#6D4D9F"/>
					<stop  offset="0.1983" style="stop-color:#654794"/>
					<stop  offset="0.5162" style="stop-color:#52397E"/>
					<stop  offset="0.912" style="stop-color:#342561"/>
					<stop  offset="1" style="stop-color:#2D205A"/>
				</linearGradient>
				<path class="st23" d="M463.37,108.77h-4.82v15.24h-3.6v-15.24h-4.82v-3.21h13.24V108.77z"/>
				<linearGradient id="SVGID_25_" gradientUnits="userSpaceOnUse" x1="475.2507" y1="103.8507" x2="475.2507" y2="127.1992">
					<stop  offset="0" style="stop-color:#6D4D9F"/>
					<stop  offset="0.1983" style="stop-color:#654794"/>
					<stop  offset="0.5162" style="stop-color:#52397E"/>
					<stop  offset="0.912" style="stop-color:#342561"/>
					<stop  offset="1" style="stop-color:#2D205A"/>
				</linearGradient>
				<path class="st24" d="M481.33,108.77h-8.55v4.33h7.31v3.21h-7.31v4.48h8.55v3.21h-12.16v-18.45h12.16V108.77z"/>
			</g>
			<g>
				<linearGradient id="SVGID_26_" gradientUnits="userSpaceOnUse" x1="300.8352" y1="103.8507" x2="300.8352" y2="127.1992">
					<stop  offset="0" style="stop-color:#6D4D9F"/>
					<stop  offset="0.1983" style="stop-color:#654794"/>
					<stop  offset="0.5162" style="stop-color:#52397E"/>
					<stop  offset="0.912" style="stop-color:#342561"/>
					<stop  offset="1" style="stop-color:#2D205A"/>
				</linearGradient>
				<path class="st25" d="M300.57,98.34c-0.81,0.13-1.98,1.31-2.71,2.91c-0.78,1.71-0.73,3.22-0.7,4.02
					c0.02,0.47,0.13,2.15,0.92,3.09c0.42,0.5,0.92,0.73,0.92,0.73c0.22,0.1,0.42,0.14,0.82,0.23c0.51,0.11,0.89,0.19,1.38,0.16
					c0.29-0.02,0.56-0.04,0.89-0.18c0.27-0.12,0.44-0.27,0.75-0.54c0.24-0.21,0.39-0.34,0.55-0.58c0.04-0.07,0.15-0.23,0.28-0.61
					c0.15-0.42,0.14-0.56,0.27-1.08c0.12-0.5,0.17-0.51,0.33-1.11c0.08-0.29,0.16-0.66,0.2-0.88c0.14-0.8-0.03-1.47-0.26-2.34
					c-0.17-0.67-0.35-1.32-0.8-2.09c-0.51-0.87-0.99-1.21-1.12-1.3c-0.53-0.36-0.98-0.43-1.08-0.44
					C301.22,98.33,300.9,98.29,300.57,98.34z"/>
				<linearGradient id="SVGID_27_" gradientUnits="userSpaceOnUse" x1="309.8195" y1="103.8507" x2="309.8195" y2="127.1992">
					<stop  offset="0" style="stop-color:#6D4D9F"/>
					<stop  offset="0.1983" style="stop-color:#654794"/>
					<stop  offset="0.5162" style="stop-color:#52397E"/>
					<stop  offset="0.912" style="stop-color:#342561"/>
					<stop  offset="1" style="stop-color:#2D205A"/>
				</linearGradient>
				<path class="st26" d="M310.48,100.56c-0.73-0.08-1.68,0.57-2.28,1.3c-0.49,0.59-0.7,1.19-0.84,1.6
					c-0.06,0.17-0.16,0.59-0.36,1.44c-0.23,0.95-0.29,1.26-0.34,1.53c-0.11,0.61-0.16,0.91-0.15,1.24c0.01,0.23,0.05,0.77,0.32,1.4
					c0.1,0.22,0.23,0.52,0.51,0.84c0.3,0.34,0.59,0.51,0.66,0.55c0.13,0.07,0.43,0.24,0.85,0.29c0.21,0.02,0.41,0.02,0.83-0.07
					c0.79-0.15,1.19-0.23,1.52-0.43c0.56-0.35,0.84-0.84,0.97-1.07c0.15-0.25,0.23-0.51,0.41-1.02c0.11-0.31,0.22-0.64,0.32-1.08
					c0.07-0.31,0.2-0.93,0.22-1.71c0.01-0.37-0.01-0.71-0.05-1.39c-0.03-0.46-0.04-0.7-0.09-0.95c-0.08-0.41-0.16-0.81-0.44-1.22
					c-0.27-0.4-0.6-0.62-0.81-0.76c-0.33-0.22-0.6-0.32-0.67-0.34C311.07,100.69,310.77,100.59,310.48,100.56z"/>
				<linearGradient id="SVGID_28_" gradientUnits="userSpaceOnUse" x1="316.4978" y1="103.8507" x2="316.4978" y2="127.1992">
					<stop  offset="0" style="stop-color:#6D4D9F"/>
					<stop  offset="0.1983" style="stop-color:#654794"/>
					<stop  offset="0.5162" style="stop-color:#52397E"/>
					<stop  offset="0.912" style="stop-color:#342561"/>
					<stop  offset="1" style="stop-color:#2D205A"/>
				</linearGradient>
				<path class="st27" d="M318.26,107.35c-1.62-0.01-2.48,0.6-2.8,0.87c-0.43,0.36-0.78,0.84-1.19,1.41
					c-0.39,0.54-0.64,0.97-0.83,1.31c-0.65,1.13-0.98,1.7-1.1,2.48c-0.06,0.4-0.14,0.94,0.08,1.57c0.2,0.59,0.56,0.97,0.76,1.17
					c0.18,0.19,0.53,0.54,1.1,0.77c0.5,0.2,0.91,0.21,1.5,0.22c0.33,0.01,0.66,0.01,1.09-0.09c0.24-0.05,0.62-0.14,1.04-0.41
					c0.27-0.17,0.44-0.35,0.57-0.49c0.27-0.28,0.34-0.43,0.8-1.13c0.4-0.61,0.44-0.64,0.71-1.07c0.29-0.48,0.44-0.71,0.5-0.9
					c0.13-0.42,0.21-0.64,0.22-1.47c0-0.88-0.07-0.84-0.17-1.36c-0.05-0.27-0.07-0.13-0.33-0.98c-0.13-0.43-0.2-0.68-0.38-1.04
					c-0.12-0.23-0.18-0.34-0.28-0.45C319.18,107.34,318.57,107.33,318.26,107.35z"/>
				<linearGradient id="SVGID_29_" gradientUnits="userSpaceOnUse" x1="292.3886" y1="103.8507" x2="292.3886" y2="127.1992">
					<stop  offset="0" style="stop-color:#6D4D9F"/>
					<stop  offset="0.1983" style="stop-color:#654794"/>
					<stop  offset="0.5162" style="stop-color:#52397E"/>
					<stop  offset="0.912" style="stop-color:#342561"/>
					<stop  offset="1" style="stop-color:#2D205A"/>
				</linearGradient>
				<path class="st28" d="M291.36,105.88c-0.47,0.16-1.77,0.6-2.5,1.82c-0.41,0.69-0.48,1.22-0.21,2.81
					c0.22,1.26,0.48,1.61,0.63,1.91c0.34,0.68,0.63,1.37,0.91,1.57c0.76,0.55,1.17,0.8,1.36,0.83c0.66,0.11,1.18,0.02,1.65-0.07
					c0.56-0.1,0.88-0.16,1.22-0.41c0.32-0.23,0.49-0.55,0.83-1.19c0.27-0.51,0.54-1.02,0.76-1.78c0.18-0.63,0.29-1.04,0.25-1.62
					c-0.05-0.68-0.3-1.19-0.43-1.46c-0.24-0.47-0.51-0.8-0.74-1.08c-0.14-0.18-0.34-0.41-0.63-0.67c-0.3-0.27-0.54-0.48-0.93-0.64
					c-0.55-0.24-1.05-0.22-1.26-0.21C292.15,105.71,291.81,105.73,291.36,105.88z"/>
				<linearGradient id="SVGID_30_" gradientUnits="userSpaceOnUse" x1="302.6427" y1="103.8507" x2="302.6427" y2="127.1992">
					<stop  offset="0" style="stop-color:#6D4D9F"/>
					<stop  offset="0.1983" style="stop-color:#654794"/>
					<stop  offset="0.5162" style="stop-color:#52397E"/>
					<stop  offset="0.912" style="stop-color:#342561"/>
					<stop  offset="1" style="stop-color:#2D205A"/>
				</linearGradient>
				<path class="st29" d="M300.73,112.01c-0.85,0.29-1.38,0.76-1.77,1.1c-0.52,0.45-0.85,0.88-1.34,1.53
					c-0.37,0.48-0.61,0.86-0.68,0.96c-0.57,0.88-0.65,1.23-0.97,1.71c-0.78,1.16-1.45,0.83-2.47,2.26
					c-0.09,0.13-0.29,0.37-0.46,0.64c-0.66,1.05-0.87,1.46-1,2.13c-0.11,0.54-0.05,0.97-0.01,1.27c0.21,1.47,1.13,2.41,1.43,2.69
					c0.36,0.33,0.89,0.61,1.95,1.17c0.35,0.18,0.94,0.46,2.1,1c1.31,0.61,1.49,0.69,1.66,0.75c0.88,0.35,1.42,0.55,2.17,0.62
					c0.39,0.04,0.39-0.01,1.27,0.03c0.73,0.03,0.82,0.07,1.38,0.1c0.63,0.03,1.07,0.02,1.92-0.01c0.88-0.03,1.33-0.04,1.74-0.1
					c0.66-0.09,1.13-0.24,1.75-0.42c1.11-0.34,1.67-0.51,2.06-0.77c0.23-0.16,1.23-0.87,1.53-2.08c0.05-0.18,0.18-0.16,0.27-1.38
					c0.11-1.42-0.01-1.43-0.07-1.86c-0.06-0.49-0.2-0.84-0.46-1.52c-0.22-0.58-0.52-0.85-0.76-1.17c-0.36-0.47-0.79-0.49-1.52-1.14
					c-0.36-0.32-0.6-0.62-0.76-1.08c-0.18-0.54-0.14-0.63-0.31-1.46c-0.07-0.32-0.05-0.67-0.51-1.47c-0.43-0.75-0.65-1.12-0.79-1.29
					c-0.36-0.41-0.74-0.64-1.51-1.07c-0.84-0.48-1.41-0.81-2.27-1.07c-0.48-0.14-1.12-0.33-1.97-0.32
					C301.98,111.76,301.41,111.77,300.73,112.01z"/>
			</g>
		</g>
	</g>
	<g>
		<path d="M232.64,164.31l-1.22-3.57h-7.02l-1.22,3.57h-2.87l6.52-17.8h2.17l6.52,17.8H232.64z M227.97,150.54l-2.77,7.9h5.47
			L227.97,150.54z"/>
		<path d="M243.77,164.46c-3.62,0-6.37-2.47-6.37-6.15v-11.8h2.7v11.67c0,2.38,1.45,3.85,3.67,3.85s3.7-1.47,3.7-3.85v-11.67h2.7
			v11.8C250.16,161.98,247.39,164.46,243.77,164.46z"/>
		<path d="M260.71,148.94v15.37h-2.7v-15.37h-4.9v-2.42h12.5v2.42H260.71z"/>
		<path d="M278.94,162.66c-1.15,1.15-2.65,1.8-4.6,1.8c-1.95,0-3.45-0.65-4.6-1.8c-1.75-1.75-1.8-3.52-1.8-7.25
			c0-3.72,0.05-5.5,1.8-7.25c1.15-1.15,2.65-1.8,4.6-1.8c1.95,0,3.45,0.65,4.6,1.8c1.75,1.75,1.8,3.52,1.8,7.25
			C280.74,159.13,280.69,160.91,278.94,162.66z M276.99,149.86c-0.67-0.7-1.58-1.1-2.65-1.1c-1.08,0-1.97,0.4-2.65,1.1
			c-0.88,0.95-1.05,2.02-1.05,5.55c0,3.52,0.17,4.57,1.05,5.52c0.67,0.7,1.57,1.12,2.65,1.12c1.07,0,1.97-0.42,2.65-1.12
			c0.9-0.92,1.05-2,1.05-5.52C278.04,151.89,277.89,150.79,276.99,149.86z"/>
		<path d="M297.47,164.31v-11.9l-4.1,8.67h-2l-4.2-8.67v11.9h-2.7v-17.8h2.7l5.2,11.07l5.1-11.07h2.7v17.8H297.47z"/>
		<path d="M315.34,164.31l-1.22-3.57h-7.02l-1.22,3.57h-2.87l6.52-17.8h2.17l6.52,17.8H315.34z M310.66,150.54l-2.77,7.9h5.47
			L310.66,150.54z"/>
		<path d="M325.34,148.94v15.37h-2.7v-15.37h-4.9v-2.42h12.5v2.42H325.34z"/>
		<path d="M333.32,164.31v-17.8h2.7v17.8H333.32z"/>
		<path d="M346.16,164.46c-1.95,0-3.45-0.65-4.6-1.8c-1.72-1.75-1.8-3.52-1.8-7.25c0-3.72,0.08-5.5,1.8-7.25
			c1.15-1.15,2.65-1.8,4.6-1.8c3.27,0,5.72,1.95,6.35,5.47h-2.75c-0.4-1.82-1.62-3.07-3.6-3.07c-1.08,0-1.97,0.4-2.63,1.1
			c-0.9,0.95-1.07,2.02-1.07,5.55c0,3.52,0.17,4.6,1.07,5.55c0.65,0.7,1.55,1.1,2.63,1.1c1.97,0,3.22-1.25,3.65-3.07h2.7
			C351.88,162.51,349.41,164.46,346.16,164.46z"/>
		<path d="M367.86,164.46c-1.95,0-3.45-0.65-4.6-1.8c-1.72-1.75-1.8-3.52-1.8-7.25c0-3.72,0.08-5.5,1.8-7.25
			c1.15-1.15,2.65-1.8,4.6-1.8c3.27,0,5.72,1.95,6.35,5.47h-2.75c-0.4-1.82-1.62-3.07-3.6-3.07c-1.08,0-1.97,0.4-2.63,1.1
			c-0.9,0.95-1.07,2.02-1.07,5.55c0,3.52,0.17,4.6,1.07,5.55c0.65,0.7,1.55,1.1,2.63,1.1c1.97,0,3.22-1.25,3.65-3.07h2.7
			C373.58,162.51,371.11,164.46,367.86,164.46z"/>
		<path d="M388.01,164.31l-1.22-3.57h-7.02l-1.22,3.57h-2.87l6.52-17.8h2.17l6.52,17.8H388.01z M383.34,150.54l-2.77,7.9h5.47
			L383.34,150.54z"/>
		<path d="M403.52,164.31l-3.75-7.5h-3.38v7.5h-2.7v-17.8h6.9c3.37,0,5.52,2.17,5.52,5.2c0,2.55-1.55,4.17-3.55,4.72l4.1,7.87
			H403.52z M400.4,148.94h-4v5.57h4c1.8,0,3.02-1.02,3.02-2.77C403.42,149.99,402.2,148.94,400.4,148.94z"/>
		<path d="M416.67,157.28h-4.05v7.02h-2.7v-17.8h6.75c3.47,0,5.7,2.3,5.7,5.4C422.36,155.01,420.14,157.28,416.67,157.28z
			 M416.52,148.94h-3.9v5.95h3.9c1.9,0,3.15-1.1,3.15-2.97C419.66,150.01,418.41,148.94,416.52,148.94z"/>
		<path d="M425.55,164.31v-17.8h11.37v2.42h-8.67v5.2h7.4v2.4h-7.4v5.35h8.67v2.42H425.55z"/>
		<path d="M447.12,148.94v15.37h-2.7v-15.37h-4.9v-2.42h12.5v2.42H447.12z"/>
		<path d="M466.85,164.46c-1.95,0-3.45-0.65-4.6-1.8c-1.72-1.75-1.8-3.52-1.8-7.25c0-3.72,0.08-5.5,1.8-7.25
			c1.15-1.15,2.65-1.8,4.6-1.8c3.27,0,5.72,1.95,6.35,5.47h-2.75c-0.4-1.82-1.62-3.07-3.6-3.07c-1.08,0-1.97,0.4-2.63,1.1
			c-0.9,0.95-1.07,2.02-1.07,5.55c0,3.52,0.17,4.6,1.07,5.55c0.65,0.7,1.55,1.1,2.63,1.1c1.97,0,3.22-1.25,3.65-3.07h2.7
			C472.57,162.51,470.1,164.46,466.85,164.46z"/>
		<path d="M476.54,164.31v-17.8h2.7v15.37h8.57v2.42H476.54z"/>
		<path d="M490.89,164.31v-17.8h11.37v2.42h-8.67v5.2h7.4v2.4h-7.4v5.35h8.67v2.42H490.89z"/>
		<path d="M516.95,164.31l-1.22-3.57h-7.02l-1.22,3.57h-2.87l6.52-17.8h2.17l6.52,17.8H516.95z M512.27,150.54l-2.77,7.9h5.47
			L512.27,150.54z"/>
		<path d="M533.56,164.31l-8.22-12.52v12.52h-2.7v-17.8h2.47l8.22,12.5v-12.5h2.7v17.8H533.56z"/>
		<path d="M540.3,164.31v-17.8h11.37v2.42H543v5.2h7.4v2.4H543v5.35h8.67v2.42H540.3z"/>
		<path d="M564.88,164.31l-3.75-7.5h-3.37v7.5h-2.7v-17.8h6.9c3.37,0,5.52,2.17,5.52,5.2c0,2.55-1.55,4.17-3.55,4.72l4.1,7.87
			H564.88z M561.75,148.94h-4v5.57h4c1.8,0,3.02-1.02,3.02-2.77C564.78,149.99,563.55,148.94,561.75,148.94z"/>
	</g>
</g>
<circle class="st30" cx="101.22" cy="103.13" r="95.95"/>
<path class="st31" d="M109.78,7.19c29.12,0,58.25,0,87.4,0c0,64.22,0,128.45,0,192.75c-64,0-128.02,0-192.04,0
	c0-28.69,0-57.4,0-86.12c0.23,0.41,0.58,0.8,0.67,1.25c1.2,5.48,1.97,11.09,3.59,16.44c13.85,45.51,60.28,75.57,109.46,66
	c25-4.86,44.98-17.86,59.79-38.51c13.55-18.9,19.25-40.08,17.45-63.36c-0.74-9.52-2.52-18.75-6.21-27.48
	c-14.07-33.23-38.8-53.32-74.41-59.84C113.58,7.96,111.47,8.55,109.78,7.19z"/>
<path class="st31" d="M90,7.19c-0.93,1.36-2.49,0.94-3.71,1.12C50.67,13.62,20.08,39.74,9.46,74.81
	c-1.56,5.15-2.39,10.51-3.59,15.77c-0.12,0.54-0.49,1.02-0.74,1.52c0-28.31,0-56.61,0-84.92C33.42,7.19,61.71,7.19,90,7.19z"/>
<path class="st32" d="M189.14,103.08c0.6,48.52-39.42,88.61-87.76,88.95c-46.53,0.33-88.63-37.03-88.98-88.14
	c-0.34-49.73,39.2-89.22,88.02-89.41C151.54,14.27,189.65,56.31,189.14,103.08z M76.6,179.8c28.84,10.03,66.56,1.38,88.99-28.98
	c20.01-27.08,18.03-62.31,8.09-80.03c-0.48,0.19-0.99,0.35-1.46,0.59c-16.41,8.28-33.45,15.27-49.5,24.31
	c-5.34,3.01-11.08,5.32-16.62,7.97c-6.87,3.29-13.74,6.6-20.73,9.96C82.43,135.74,79.51,157.79,76.6,179.8z M93.76,49.55
	c-2.49,18.91-4.92,37.32-7.34,55.72c1.43,0.75,2.5-0.16,3.59-0.71c7.9-3.97,15.73-8.1,23.68-11.96
	c18.31-8.88,36.69-17.64,55.03-26.46c0.82-0.4,1.61-0.86,2.41-1.29c-19.62-37.27-65.24-51.42-100.46-36
	c-3.94,30.04-7.89,60.2-11.88,90.61c4.78-2.28,9.2-4.6,13.79-6.49c3.15-1.3,4.61-2.99,4.97-6.65c1.07-10.97,2.74-21.89,4.19-32.83
	c0.86-6.51,1.76-13.01,2.64-19.52C87.47,52.51,90.41,51.13,93.76,49.55z M49.9,123.75c3.99-30.24,7.97-60.32,11.98-90.69
	c-40.08,22.08-49.5,70.19-34.6,101.6C34.72,131.07,42.16,127.48,49.9,123.75z M68.17,176.86c2.61-19.83,5.14-39.04,7.72-58.63
	c-6.3,2.98-12.29,5.81-18.12,8.57c-1.17,9.08-2.29,17.79-3.41,26.53c-2.97,1.43-5.77,2.77-8.9,4.27c0.98-8.96,2.41-17.34,3.21-26.24
	c-6.61,3.15-12.7,6.05-19.05,9.08C38.46,156.95,51.15,168.87,68.17,176.86z"/>
<path class="st30" d="M76.6,179.8c2.91-22.01,5.83-44.06,8.76-66.18c7-3.36,13.86-6.67,20.73-9.96c5.55-2.65,11.28-4.96,16.62-7.97
	c16.05-9.04,33.09-16.03,49.5-24.31c0.47-0.24,0.98-0.4,1.46-0.59c9.94,17.72,11.92,52.96-8.09,80.03
	C143.16,181.18,105.44,189.84,76.6,179.8z M105.78,118.3c-0.09,0.05-0.26,0.12-0.25,0.14c0.04,0.16,0.12,0.3,0.19,0.46
	c0.05,1.8,0.02,3.6,0.16,5.39c0.27,3.28,2.64,5.09,5.85,4.51c3.91-0.7,6.72-2.87,8.51-6.43c2.31-4.59,2.09-9.46,1.49-14.3
	c-0.36-2.85-2.28-4.08-5.26-3.85c-3.78,0.29-6.72,2.16-8.2,5.62C107.13,112.53,106.59,115.47,105.78,118.3z M172.22,89.37
	c0.56-1.02,1.29-1.98,1.62-3.07c0.73-2.39,1.07-4.9-0.84-6.91c-1.98-2.09-4.28-1.23-6.47-0.23c-2.31,1.06-4.59,2.18-7.13,3.39
	c-0.72,7.81-1.44,15.65-2.21,23.96c2.53-1.27,4.58-2.3,6.51-3.27c0.3-2.71,0.59-5.12,0.84-7.55c0.15-1.42,0.83-2.1,2.6-1.74
	c0,2.33,0,4.72,0,7.54c2.4-1.07,4.4-1.96,6.54-2.92C172.56,95.49,174.84,92.08,172.22,89.37z M103.78,121.89
	c-0.28-1.98-0.43-3.99-0.87-5.93c-0.45-2.02-1.9-2.9-3.97-2.94c-3.99-0.08-7.01,1.6-8.9,5.04c-2.64,4.81-3.16,10.07-2.58,15.43
	c0.29,2.71,2.05,4.15,4.78,4.06c4.16-0.14,7.18-2.27,9.22-5.82C103.21,128.7,103.67,125.36,103.78,121.89z M140.12,114.62
	c4.71-2.25,8.8-4.2,13.07-6.24c0.2-1.81,0.39-3.62,0.63-5.86c-2.35,1.06-4.22,1.9-6.13,2.75c-0.58-2.18,0.27-3.37,2.1-4.13
	c1.53-0.64,3-1.44,4.46-2.16c0.11-1.84,0.19-3.4,0.31-5.33c-2.18,1.24-4,2.27-6.28,3.56c0.19-1.74,0.31-2.86,0.43-4.05
	c2.1-1.04,4.16-2.06,6.14-3.04c0-1.81,0-3.41,0-5.4c-4.46,2.15-8.51,4.11-12.56,6.06C141.58,98.69,140.87,106.37,140.12,114.62z
	 M126.34,121.42c1.95-0.98,3.33-1.78,4.8-2.37c1.73-0.69,2.55-1.86,3.04-3.67c1.67-6.23,3.57-12.4,5.33-18.61
	c0.42-1.47,0.61-3,0.96-4.83c-3.88,1.2-6.8,2.58-7.29,6.82c-0.25,2.18-1.1,4.3-1.7,6.44c-0.34,1.24-0.71,2.48-1.07,3.72
	c-0.18-0.03-0.36-0.05-0.54-0.08c-0.5-3.48-1.01-6.95-1.56-10.72c-2.2,1.05-3.98,1.91-5.95,2.84
	C123.69,107.72,124.97,114.34,126.34,121.42z"/>
<path class="st30" d="M93.76,49.55c-3.35,1.58-6.29,2.96-9.37,4.42c-0.88,6.5-1.78,13.01-2.64,19.52
	c-1.45,10.94-3.12,21.85-4.19,32.83c-0.36,3.66-1.82,5.35-4.97,6.65c-4.59,1.9-9.01,4.22-13.79,6.49
	c3.99-30.4,7.94-60.56,11.88-90.61c35.22-15.42,80.84-1.27,100.46,36c-0.8,0.43-1.59,0.9-2.41,1.29
	c-18.35,8.82-36.72,17.57-55.03,26.46c-7.96,3.86-15.78,7.99-23.68,11.96c-1.09,0.55-2.16,1.46-3.59,0.71
	C88.84,86.88,91.27,68.46,93.76,49.55z"/>
<path class="st30" d="M49.9,123.75c-7.73,3.73-15.18,7.32-22.62,10.91c-14.89-31.4-5.47-79.51,34.6-101.6
	C57.86,63.43,53.89,93.51,49.9,123.75z"/>
<path class="st30" d="M68.17,176.86c-17.02-7.99-29.7-19.92-38.55-36.42c6.35-3.03,12.43-5.93,19.05-9.08
	c-0.79,8.9-2.23,17.28-3.21,26.24c3.13-1.5,5.92-2.84,8.9-4.27c1.12-8.74,2.25-17.45,3.41-26.53c5.83-2.76,11.82-5.59,18.12-8.57
	C73.31,137.82,70.78,157.03,68.17,176.86z"/>
<path class="st32" d="M172.22,89.37c2.62,2.71,0.34,6.12,1.48,9.2c-2.14,0.96-4.14,1.85-6.54,2.92c0-2.82,0-5.21,0-7.54
	c-1.77-0.36-2.45,0.32-2.6,1.74c-0.26,2.42-0.54,4.84-0.84,7.55c-1.94,0.97-3.98,2-6.51,3.27c0.77-8.31,1.49-16.15,2.21-23.96
	c2.54-1.21,4.82-2.33,7.13-3.39c2.18-1,4.49-1.86,6.47,0.23c1.91,2.01,1.56,4.53,0.84,6.91C173.51,87.39,172.77,88.35,172.22,89.37z
	 M165.44,88.83c2.98-1.01,3.26-1.49,2.56-4.39C165.15,84.6,165.01,84.84,165.44,88.83z"/>
<path class="st32" d="M105.78,118.3c0.81-2.83,1.34-5.77,2.49-8.46c1.48-3.46,4.42-5.33,8.2-5.62c2.97-0.23,4.9,1,5.26,3.85
	c0.61,4.84,0.82,9.71-1.49,14.3c-1.79,3.56-4.6,5.72-8.51,6.43c-3.21,0.58-5.58-1.23-5.85-4.51c-0.15-1.79-0.12-3.59-0.16-5.39
	C105.88,118.71,105.9,118.51,105.78,118.3z M116.02,110.79c-1.89-0.54-2.63-0.32-2.97,1.34c-0.53,2.57-0.87,5.19-1.15,7.81
	c-0.08,0.74,0.35,1.53,0.55,2.32C115.55,121.2,116.66,117.35,116.02,110.79z"/>
<path class="st32" d="M103.78,121.89c-0.12,3.47-0.57,6.81-2.32,9.84c-2.04,3.55-5.06,5.68-9.22,5.82
	c-2.73,0.09-4.49-1.36-4.78-4.06c-0.58-5.36-0.06-10.62,2.58-15.43c1.89-3.44,4.92-5.12,8.9-5.04c2.07,0.04,3.53,0.92,3.97,2.94
	C103.35,117.91,103.51,119.91,103.78,121.89z M93.78,130.89c0.3,0.14,0.59,0.27,0.89,0.41c0.6-0.61,1.47-1.12,1.76-1.86
	c1.29-3.29,1.65-6.71,1.02-10.25c-1.92-0.39-2.71,0.57-2.98,2.1c-0.4,2.29-0.8,4.59-1.05,6.89
	C93.33,129.07,93.65,129.99,93.78,130.89z"/>
<path class="st32" d="M140.12,114.62c0.76-8.25,1.46-15.92,2.19-23.84c4.04-1.95,8.1-3.91,12.56-6.06c0,2,0,3.59,0,5.4
	c-1.98,0.98-4.04,2-6.14,3.04c-0.13,1.19-0.25,2.3-0.43,4.05c2.28-1.29,4.09-2.32,6.28-3.56c-0.11,1.93-0.2,3.49-0.31,5.33
	c-1.46,0.72-2.93,1.52-4.46,2.16c-1.83,0.76-2.68,1.95-2.1,4.13c1.9-0.86,3.78-1.7,6.13-2.75c-0.24,2.23-0.44,4.05-0.63,5.86
	C148.91,110.42,144.82,112.37,140.12,114.62z"/>
<path class="st32" d="M126.34,121.42c-1.37-7.08-2.65-13.7-3.96-20.46c1.96-0.94,3.75-1.79,5.95-2.84
	c0.55,3.76,1.05,7.24,1.56,10.72c0.18,0.03,0.36,0.05,0.54,0.08c0.36-1.24,0.73-2.47,1.07-3.72c0.59-2.14,1.44-4.26,1.7-6.44
	c0.49-4.24,3.4-5.62,7.29-6.82c-0.36,1.83-0.55,3.36-0.96,4.83c-1.76,6.21-3.66,12.38-5.33,18.61c-0.49,1.82-1.31,2.98-3.04,3.67
	C129.67,119.63,128.29,120.44,126.34,121.42z"/>
<path class="st33" d="M105.78,118.3c0.12,0.21,0.1,0.41-0.06,0.6c-0.07-0.15-0.15-0.3-0.19-0.46
	C105.52,118.42,105.69,118.35,105.78,118.3z"/>
<path class="st30" d="M165.44,88.83c-0.44-3.99-0.3-4.23,2.56-4.39C168.7,87.34,168.42,87.82,165.44,88.83z"/>
<path class="st30" d="M116.02,110.79c0.64,6.56-0.47,10.41-3.57,11.47c-0.2-0.79-0.63-1.58-0.55-2.32c0.28-2.61,0.62-5.23,1.15-7.81
	C113.4,110.47,114.14,110.25,116.02,110.79z"/>
<path class="st30" d="M93.78,130.89c-0.13-0.9-0.46-1.83-0.36-2.7c0.25-2.31,0.65-4.6,1.05-6.89c0.27-1.54,1.06-2.49,2.98-2.1
	c0.62,3.55,0.26,6.96-1.02,10.25c-0.29,0.74-1.16,1.25-1.76,1.86C94.37,131.17,94.08,131.03,93.78,130.89z"/>
<g>
	<path d="M190.88,155.63c0.85,0,1.68,0.22,2.5,0.66c0.81,0.44,1.45,1.06,1.9,1.88c0.45,0.81,0.68,1.66,0.68,2.55
		c0,0.87-0.22,1.72-0.67,2.52c-0.45,0.81-1.07,1.43-1.88,1.88c-0.81,0.45-1.65,0.67-2.53,0.67c-0.88,0-1.72-0.22-2.53-0.67
		c-0.81-0.45-1.43-1.07-1.88-1.88c-0.45-0.81-0.67-1.65-0.67-2.52c0-0.88,0.23-1.73,0.68-2.55c0.46-0.81,1.09-1.44,1.9-1.88
		C189.2,155.85,190.03,155.63,190.88,155.63z M190.88,156.47c-0.71,0-1.41,0.18-2.08,0.55c-0.68,0.37-1.2,0.89-1.59,1.57
		c-0.38,0.68-0.57,1.39-0.57,2.12c0,0.73,0.19,1.43,0.56,2.1c0.37,0.67,0.9,1.19,1.57,1.57c0.67,0.38,1.38,0.56,2.11,0.56
		c0.73,0,1.43-0.19,2.11-0.56c0.67-0.37,1.2-0.9,1.57-1.57c0.37-0.67,0.56-1.37,0.56-2.1c0-0.74-0.19-1.44-0.57-2.12
		c-0.38-0.68-0.91-1.2-1.59-1.57C192.29,156.65,191.59,156.47,190.88,156.47z M188.66,163.52v-5.47h1.88c0.64,0,1.11,0.05,1.39,0.15
		c0.29,0.1,0.52,0.28,0.69,0.53c0.17,0.25,0.26,0.52,0.26,0.8c0,0.4-0.14,0.75-0.43,1.04c-0.29,0.3-0.66,0.46-1.13,0.5
		c0.19,0.08,0.35,0.18,0.46,0.29c0.22,0.22,0.49,0.58,0.81,1.08l0.67,1.07h-1.08l-0.48-0.86c-0.38-0.68-0.69-1.1-0.92-1.27
		c-0.16-0.13-0.4-0.19-0.71-0.19h-0.52v2.32H188.66z M189.54,160.44h1.07c0.51,0,0.86-0.08,1.05-0.23c0.19-0.15,0.28-0.35,0.28-0.61
		c0-0.16-0.04-0.31-0.13-0.43c-0.09-0.13-0.21-0.22-0.37-0.29c-0.16-0.06-0.45-0.09-0.89-0.09h-1V160.44z"/>
</g>
</svg>
