<?xml version="1.0" encoding="utf-8"?>
<!-- Generator: Adobe Illustrator 24.0.2, SVG Export Plug-In . SVG Version: 6.00 Build 0)  -->
<svg version="1.1" xmlns="http://www.w3.org/2000/svg" xmlns:xlink="http://www.w3.org/1999/xlink" x="0px" y="0px"
	 viewBox="0 0 67.89 66.92" style="enable-background:new 0 0 67.89 66.92;" xml:space="preserve">
<style type="text/css">
	.st0{clip-path:url(#SVGID_2_);}
	.st1{fill:#FFFFFF;}
	.st2{clip-path:url(#SVGID_4_);}
	.st3{clip-path:url(#SVGID_6_);}
	.st4{clip-path:url(#SVGID_8_);}
	.st5{clip-path:url(#SVGID_10_);}
	.st6{clip-path:url(#SVGID_12_);}
	.st7{fill:url(#SVGID_13_);}
	.st8{clip-path:url(#SVGID_15_);}
	.st9{fill:url(#SVGID_16_);}
	.st10{clip-path:url(#SVGID_18_);}
	.st11{fill:url(#SVGID_19_);}
	.st12{clip-path:url(#SVGID_21_);}
	.st13{fill:url(#SVGID_22_);}
	.st14{clip-path:url(#SVGID_24_);}
	.st15{fill:url(#SVGID_25_);}
</style>
<g id="Layer_1">
	<g>
		<defs>
			<path id="SVGID_1_" d="M26.63,1.49c-1.96,0.32-4.78,3.17-6.54,7.03c-1.89,4.14-1.77,7.78-1.69,9.73c0.05,1.13,0.3,5.2,2.22,7.48
				c1.02,1.21,2.23,1.77,2.23,1.77c0.54,0.25,1.02,0.35,1.98,0.55c1.24,0.26,2.14,0.45,3.34,0.38c0.69-0.04,1.36-0.09,2.15-0.44
				c0.66-0.29,1.07-0.66,1.82-1.31c0.58-0.5,0.95-0.83,1.32-1.39c0.11-0.16,0.36-0.57,0.68-1.48c0.36-1.02,0.33-1.34,0.64-2.62
				c0.3-1.22,0.4-1.23,0.79-2.69c0.18-0.71,0.39-1.6,0.49-2.13c0.34-1.93-0.09-3.54-0.63-5.65c-0.42-1.62-0.84-3.2-1.93-5.05
				c-1.24-2.11-2.38-2.92-2.7-3.14c-1.28-0.88-2.37-1.04-2.61-1.07c0,0-0.29-0.04-0.69-0.04C27.26,1.42,26.95,1.44,26.63,1.49"/>
		</defs>
		<clipPath id="SVGID_2_">
			<use xlink:href="#SVGID_1_"  style="overflow:visible;"/>
		</clipPath>
		<g class="st0">
			
				<rect x="13.51" y="-1.1" transform="matrix(0.9143 -0.4051 0.4051 0.9143 -3.7185 12.3446)" class="st1" width="27.61" height="32.13"/>
		</g>
	</g>
	<g>
		<defs>
			<path id="SVGID_3_" d="M39.31,8.22c-1.26,1.54-1.81,3.1-2.18,4.16c-0.16,0.44-0.42,1.54-0.95,3.74
				c-0.59,2.46-0.75,3.28-0.88,3.97c-0.28,1.58-0.42,2.38-0.39,3.21c0.02,0.59,0.12,2.01,0.82,3.63c0.25,0.57,0.59,1.35,1.32,2.18
				c0.77,0.88,1.54,1.33,1.73,1.43c0.34,0.19,1.12,0.62,2.21,0.75c0.55,0.06,1.06,0.04,2.15-0.17c2.07-0.4,3.1-0.6,3.94-1.12
				c1.46-0.9,2.19-2.18,2.53-2.77c0.38-0.66,0.61-1.32,1.07-2.66c0.29-0.82,0.58-1.67,0.85-2.82c0.19-0.81,0.51-2.41,0.58-4.44
				c0.03-0.97-0.02-1.85-0.13-3.61c-0.07-1.2-0.11-1.82-0.24-2.46c-0.21-1.07-0.41-2.1-1.14-3.18c-0.71-1.05-1.57-1.62-2.1-1.98
				c-0.85-0.57-1.56-0.83-1.74-0.89c0,0-0.77-0.27-1.53-0.35c-0.1-0.01-0.21-0.02-0.32-0.02C43.06,4.83,40.78,6.43,39.31,8.22"/>
		</defs>
		<clipPath id="SVGID_4_">
			<use xlink:href="#SVGID_3_"  style="overflow:visible;"/>
		</clipPath>
		<g class="st2">
			
				<rect x="30.25" y="2.47" transform="matrix(0.9143 -0.4051 0.4051 0.9143 -3.5995 19.1775)" class="st1" width="26.53" height="31.25"/>
		</g>
	</g>
	<g>
		<defs>
			<path id="SVGID_5_" d="M59.85,18.18c-3.91-0.03-5.98,1.44-6.76,2.1c-1.03,0.87-1.88,2.04-2.87,3.41
				c-0.94,1.3-1.54,2.34-2.01,3.15c-1.57,2.73-2.36,4.1-2.66,5.99c-0.15,0.96-0.34,2.26,0.18,3.78c0.49,1.42,1.36,2.33,1.85,2.83
				c0.44,0.45,1.29,1.3,2.66,1.85c1.2,0.49,2.2,0.5,3.62,0.53c0.8,0.01,1.6,0.02,2.64-0.21c0.58-0.13,1.51-0.35,2.52-1
				c0.65-0.42,1.06-0.84,1.38-1.17c0.64-0.67,0.82-1.03,1.93-2.73c0.97-1.48,1.07-1.55,1.71-2.59c0.71-1.15,1.07-1.72,1.2-2.18
				c0.3-1.02,0.51-1.53,0.52-3.55c0.01-2.12-0.17-2.02-0.41-3.29c-0.12-0.66-0.16-0.32-0.79-2.38c-0.32-1.03-0.48-1.65-0.93-2.52
				c-0.28-0.55-0.43-0.82-0.68-1.09c-0.76-0.8-1.9-0.95-2.69-0.95C60.12,18.17,59.98,18.18,59.85,18.18"/>
		</defs>
		<clipPath id="SVGID_6_">
			<use xlink:href="#SVGID_5_"  style="overflow:visible;"/>
		</clipPath>
		<g class="st3">
			<rect x="41.3" y="15" transform="matrix(0.9143 -0.4051 0.4051 0.9143 -7.3957 25.0521)" class="st1" width="28.4" height="30"/>
		</g>
	</g>
	<g>
		<defs>
			<path id="SVGID_7_" d="M11.75,14.94c-0.32,0.02-1.18,0.07-2.31,0.46c-1.19,0.4-4.45,1.51-6.28,4.57
				c-1.03,1.72-1.21,3.06-0.52,7.07c0.54,3.16,1.2,4.04,1.58,4.8c0.86,1.7,1.59,3.44,2.3,3.95c1.92,1.39,2.95,2.01,3.43,2.09
				c1.67,0.28,2.95,0.04,4.16-0.18c1.4-0.26,2.21-0.41,3.07-1.03c0.79-0.57,1.23-1.38,2.08-2.99c0.68-1.28,1.36-2.57,1.9-4.47
				c0.45-1.58,0.74-2.61,0.63-4.06c-0.13-1.71-0.75-2.99-1.09-3.66c-0.59-1.19-1.28-2.02-1.85-2.72c-0.36-0.44-0.85-1.02-1.59-1.67
				c-0.76-0.67-1.36-1.21-2.33-1.62c-1.09-0.47-2.08-0.54-2.72-0.54C12.02,14.93,11.87,14.94,11.75,14.94"/>
		</defs>
		<clipPath id="SVGID_8_">
			<use xlink:href="#SVGID_7_"  style="overflow:visible;"/>
		</clipPath>
		<g class="st4">
			
				<rect x="-1.9" y="11.89" transform="matrix(0.9143 -0.4051 0.4051 0.9143 -9.73 7.1043)" class="st1" width="27.64" height="29.31"/>
		</g>
	</g>
	<g>
		<defs>
			<path id="SVGID_9_" d="M29.84,25.03c-0.78,0.01-2.06,0.03-3.61,0.57c-1.91,0.66-3.11,1.72-4,2.49c-1.17,1.02-1.91,2-3.02,3.45
				c-0.83,1.08-1.38,1.93-1.52,2.15c-1.28,1.98-1.45,2.78-2.19,3.87c-1.76,2.61-3.27,1.88-5.58,5.11c-0.2,0.29-0.66,0.84-1.04,1.44
				c-1.49,2.38-1.97,3.3-2.26,4.8c-0.24,1.22-0.11,2.2-0.01,2.86c0.48,3.31,2.54,5.43,3.23,6.08c0.8,0.76,2,1.39,4.39,2.65
				c0.79,0.42,2.11,1.04,4.73,2.26c2.97,1.39,3.37,1.55,3.75,1.7c1.99,0.78,3.2,1.25,4.89,1.4c0.42,0.04,0.64,0.04,0.97,0.03
				c0.36,0,0.86,0,1.89,0.04c1.64,0.08,1.85,0.15,3.12,0.22c1.42,0.07,2.41,0.04,4.33-0.02c1.99-0.06,2.99-0.09,3.93-0.23
				c1.48-0.21,2.54-0.53,3.95-0.96c2.51-0.76,3.76-1.14,4.64-1.74c0.52-0.35,2.77-1.97,3.46-4.7c0.1-0.42,0.4-0.36,0.62-3.11
				c0.25-3.19-0.03-3.22-0.15-4.2c-0.14-1.1-0.45-1.9-1.04-3.42c-0.51-1.31-1.17-1.92-1.73-2.64c-0.82-1.07-1.79-1.12-3.44-2.58
				c-0.82-0.73-1.35-1.4-1.71-2.44c-0.41-1.21-0.32-1.43-0.71-3.3c-0.15-0.73-0.12-1.52-1.15-3.32c-0.97-1.68-1.45-2.53-1.78-2.91
				c-0.8-0.93-1.68-1.44-3.4-2.42c-1.89-1.08-3.17-1.82-5.13-2.4c-1.07-0.32-2.45-0.72-4.3-0.72
				C29.93,25.03,29.89,25.03,29.84,25.03"/>
		</defs>
		<clipPath id="SVGID_10_">
			<use xlink:href="#SVGID_9_"  style="overflow:visible;"/>
		</clipPath>
		<g class="st5">
			
				<rect x="0.11" y="17" transform="matrix(0.9143 -0.4051 0.4051 0.9143 -15.8585 16.2924)" class="st1" width="60.91" height="57.25"/>
		</g>
	</g>
</g>
<g id="Layer_2">
	<g>
		<g>
			<defs>
				<path id="SVGID_11_" d="M26.8,4.88c-1.46,0.24-3.58,2.37-4.89,5.25c-1.41,3.1-1.33,5.82-1.26,7.27
					c0.04,0.84,0.23,3.89,1.66,5.59c0.76,0.9,1.67,1.33,1.67,1.33c0.4,0.19,0.76,0.26,1.48,0.41c0.93,0.19,1.6,0.34,2.5,0.28
					c0.51-0.03,1.01-0.06,1.61-0.33c0.49-0.22,0.8-0.49,1.36-0.98c0.43-0.38,0.71-0.62,0.99-1.04c0.08-0.12,0.27-0.42,0.51-1.11
					c0.27-0.77,0.24-1.01,0.48-1.96c0.22-0.91,0.3-0.92,0.59-2.01c0.14-0.53,0.29-1.19,0.36-1.59c0.25-1.44-0.06-2.65-0.47-4.22
					c-0.31-1.21-0.63-2.39-1.44-3.77c-0.93-1.57-1.78-2.19-2.02-2.35c-0.96-0.66-1.77-0.78-1.95-0.8c0,0-0.21-0.03-0.52-0.03
					C27.26,4.83,27.03,4.84,26.8,4.88"/>
			</defs>
			<clipPath id="SVGID_12_">
				<use xlink:href="#SVGID_11_"  style="overflow:visible;"/>
			</clipPath>
			<g class="st6">
				
					<linearGradient id="SVGID_13_" gradientUnits="userSpaceOnUse" x1="1.818989e-12" y1="66.9127" x2="1" y2="66.9127" gradientTransform="matrix(-37.0748 -83.6831 -83.6831 37.0748 5655.5073 -2400.9568)">
					<stop  offset="0" style="stop-color:#2C205A"/>
					<stop  offset="0.0123" style="stop-color:#31225D"/>
					<stop  offset="0.0849" style="stop-color:#492A6D"/>
					<stop  offset="0.1681" style="stop-color:#5C317B"/>
					<stop  offset="0.2651" style="stop-color:#6B3786"/>
					<stop  offset="0.3845" style="stop-color:#763C8F"/>
					<stop  offset="0.5509" style="stop-color:#7D3F96"/>
					<stop  offset="1" style="stop-color:#7F4098"/>
				</linearGradient>
				<polygon class="st7" points="22.73,30.11 13,8.15 31.87,-0.21 41.6,21.75 				"/>
			</g>
		</g>
		<g>
			<defs>
				<path id="SVGID_14_" d="M40.6,11.23c-0.88,1.07-1.26,2.15-1.52,2.89c-0.11,0.31-0.29,1.07-0.66,2.6
					c-0.41,1.71-0.52,2.28-0.61,2.76c-0.2,1.1-0.29,1.65-0.27,2.23c0.01,0.41,0.08,1.4,0.57,2.52c0.17,0.4,0.41,0.94,0.92,1.52
					c0.53,0.61,1.07,0.92,1.2,0.99c0.23,0.13,0.78,0.43,1.53,0.52c0.38,0.04,0.74,0.03,1.5-0.12c1.44-0.28,2.15-0.42,2.74-0.78
					c1.01-0.63,1.52-1.51,1.76-1.93c0.26-0.46,0.42-0.92,0.74-1.85c0.2-0.57,0.4-1.16,0.59-1.96c0.13-0.57,0.36-1.67,0.4-3.08
					c0.02-0.67-0.02-1.28-0.09-2.51c-0.05-0.84-0.08-1.26-0.17-1.71c-0.14-0.74-0.28-1.46-0.79-2.21c-0.49-0.73-1.09-1.13-1.46-1.37
					c-0.59-0.4-1.08-0.58-1.21-0.62c0,0-0.54-0.19-1.06-0.24c-0.07-0.01-0.15-0.01-0.22-0.01C43.2,8.88,41.62,9.98,40.6,11.23"/>
			</defs>
			<clipPath id="SVGID_15_">
				<use xlink:href="#SVGID_14_"  style="overflow:visible;"/>
			</clipPath>
			<g class="st8">
				
					<linearGradient id="SVGID_16_" gradientUnits="userSpaceOnUse" x1="3.637979e-12" y1="66.9174" x2="1" y2="66.9174" gradientTransform="matrix(-37.0748 -83.6831 -83.6831 37.0748 5668.2886 -2406.6194)">
					<stop  offset="0" style="stop-color:#2C205A"/>
					<stop  offset="0.0123" style="stop-color:#31225D"/>
					<stop  offset="0.0849" style="stop-color:#492A6D"/>
					<stop  offset="0.1681" style="stop-color:#5C317B"/>
					<stop  offset="0.2651" style="stop-color:#6B3786"/>
					<stop  offset="0.3845" style="stop-color:#763C8F"/>
					<stop  offset="0.5509" style="stop-color:#7D3F96"/>
					<stop  offset="1" style="stop-color:#7F4098"/>
				</linearGradient>
				<polygon class="st9" points="39.49,31.74 30.69,11.9 47.55,4.43 56.34,24.28 				"/>
			</g>
		</g>
		<g>
			<defs>
				<path id="SVGID_17_" d="M58.78,21.16c-2.93-0.02-4.48,1.08-5.06,1.57c-0.77,0.65-1.4,1.52-2.15,2.55
					c-0.7,0.97-1.15,1.75-1.5,2.36c-1.18,2.04-1.76,3.07-1.99,4.48c-0.11,0.72-0.26,1.69,0.14,2.83c0.37,1.06,1.02,1.74,1.38,2.12
					c0.33,0.34,0.96,0.97,1.99,1.39c0.9,0.36,1.64,0.38,2.71,0.39c0.6,0.01,1.2,0.02,1.98-0.16c0.44-0.1,1.13-0.26,1.89-0.75
					c0.49-0.31,0.8-0.63,1.04-0.88c0.48-0.5,0.61-0.77,1.44-2.04c0.73-1.11,0.8-1.16,1.28-1.94c0.53-0.86,0.8-1.29,0.9-1.63
					c0.23-0.76,0.38-1.15,0.39-2.65c0.01-1.58-0.13-1.51-0.31-2.46c-0.09-0.49-0.12-0.24-0.59-1.78c-0.24-0.77-0.36-1.24-0.7-1.88
					c-0.21-0.41-0.32-0.61-0.51-0.81c-0.57-0.6-1.42-0.71-2.01-0.71C58.98,21.15,58.87,21.15,58.78,21.16"/>
			</defs>
			<clipPath id="SVGID_18_">
				<use xlink:href="#SVGID_17_"  style="overflow:visible;"/>
			</clipPath>
			<g class="st10">
				
					<linearGradient id="SVGID_19_" gradientUnits="userSpaceOnUse" x1="3.637979e-12" y1="66.9168" x2="1" y2="66.9168" gradientTransform="matrix(-37.0748 -83.6831 -83.6831 37.0748 5673.8623 -2409.0886)">
					<stop  offset="0" style="stop-color:#2C205A"/>
					<stop  offset="0.0123" style="stop-color:#31225D"/>
					<stop  offset="0.0849" style="stop-color:#492A6D"/>
					<stop  offset="0.1681" style="stop-color:#5C317B"/>
					<stop  offset="0.2651" style="stop-color:#6B3786"/>
					<stop  offset="0.3845" style="stop-color:#763C8F"/>
					<stop  offset="0.5509" style="stop-color:#7D3F96"/>
					<stop  offset="1" style="stop-color:#7F4098"/>
				</linearGradient>
				<polygon class="st11" points="50.35,44.56 41.26,24.05 60.69,15.44 69.78,35.96 				"/>
			</g>
		</g>
		<g>
			<defs>
				<path id="SVGID_20_" d="M11.83,18.18c-0.23,0.01-0.85,0.05-1.66,0.33c-0.86,0.29-3.2,1.08-4.51,3.29
					c-0.74,1.24-0.87,2.2-0.38,5.09c0.39,2.27,0.86,2.9,1.14,3.45c0.62,1.22,1.15,2.47,1.65,2.84c1.38,1,2.12,1.44,2.46,1.5
					c1.2,0.2,2.12,0.03,2.99-0.13c1-0.19,1.59-0.3,2.21-0.74c0.57-0.41,0.89-1,1.5-2.15c0.49-0.92,0.98-1.84,1.37-3.22
					c0.32-1.14,0.53-1.88,0.45-2.92c-0.09-1.23-0.54-2.15-0.78-2.63c-0.43-0.86-0.92-1.45-1.33-1.95c-0.26-0.32-0.61-0.73-1.14-1.2
					c-0.54-0.48-0.98-0.87-1.68-1.17c-0.78-0.34-1.5-0.39-1.96-0.39C12.02,18.17,11.91,18.17,11.83,18.18"/>
			</defs>
			<clipPath id="SVGID_21_">
				<use xlink:href="#SVGID_20_"  style="overflow:visible;"/>
			</clipPath>
			<g class="st12">
				
					<linearGradient id="SVGID_22_" gradientUnits="userSpaceOnUse" x1="7.275958e-12" y1="66.9209" x2="1" y2="66.9209" gradientTransform="matrix(-37.0748 -83.6831 -83.6831 37.0748 5639.0674 -2393.6733)">
					<stop  offset="0" style="stop-color:#2C205A"/>
					<stop  offset="0.0123" style="stop-color:#31225D"/>
					<stop  offset="0.0849" style="stop-color:#492A6D"/>
					<stop  offset="0.1681" style="stop-color:#5C317B"/>
					<stop  offset="0.2651" style="stop-color:#6B3786"/>
					<stop  offset="0.3845" style="stop-color:#763C8F"/>
					<stop  offset="0.5509" style="stop-color:#7D3F96"/>
					<stop  offset="1" style="stop-color:#7F4098"/>
				</linearGradient>
				<polygon class="st13" points="7.13,40.19 -1.41,20.91 16.77,12.86 25.31,32.13 				"/>
			</g>
		</g>
		<g>
			<defs>
				<path id="SVGID_23_" d="M29.98,29.12c-0.62,0.01-1.65,0.03-2.89,0.45c-1.53,0.53-2.5,1.38-3.2,1.99
					c-0.94,0.82-1.53,1.6-2.42,2.76c-0.66,0.87-1.1,1.54-1.22,1.73c-1.02,1.59-1.17,2.23-1.76,3.1c-1.41,2.09-2.62,1.5-4.47,4.09
					c-0.16,0.23-0.53,0.67-0.83,1.15c-1.2,1.9-1.57,2.65-1.81,3.84c-0.19,0.98-0.09,1.76-0.01,2.29c0.39,2.65,2.04,4.35,2.59,4.87
					c0.64,0.6,1.6,1.11,3.51,2.12c0.63,0.33,1.69,0.83,3.79,1.81c2.38,1.11,2.7,1.24,3,1.36c1.6,0.63,2.56,1,3.92,1.12
					c0.34,0.03,0.51,0.03,0.78,0.03c0.29,0,0.69,0,1.52,0.04c1.31,0.06,1.48,0.12,2.5,0.17c1.13,0.06,1.93,0.03,3.47-0.01
					c1.6-0.05,2.4-0.07,3.15-0.18c1.19-0.17,2.04-0.43,3.17-0.77c2.01-0.61,3.01-0.91,3.72-1.39c0.42-0.28,2.22-1.58,2.77-3.76
					c0.08-0.33,0.32-0.29,0.49-2.49c0.2-2.56-0.02-2.58-0.12-3.36c-0.11-0.88-0.36-1.52-0.83-2.74c-0.41-1.05-0.94-1.54-1.38-2.12
					c-0.66-0.86-1.43-0.89-2.75-2.07c-0.66-0.59-1.08-1.12-1.37-1.96c-0.33-0.97-0.25-1.14-0.57-2.64c-0.12-0.59-0.1-1.22-0.92-2.66
					c-0.77-1.35-1.17-2.03-1.43-2.33c-0.64-0.74-1.34-1.15-2.72-1.94c-1.51-0.86-2.54-1.46-4.11-1.93
					c-0.85-0.25-1.96-0.58-3.44-0.58C30.06,29.12,30.02,29.12,29.98,29.12"/>
			</defs>
			<clipPath id="SVGID_24_">
				<use xlink:href="#SVGID_23_"  style="overflow:visible;"/>
			</clipPath>
			<g class="st14">
				
					<linearGradient id="SVGID_25_" gradientUnits="userSpaceOnUse" x1="3.637979e-12" y1="66.8965" x2="1" y2="66.8965" gradientTransform="matrix(-37.0748 -83.6831 -83.6831 37.0748 5645.522 -2396.533)">
					<stop  offset="0" style="stop-color:#2C205A"/>
					<stop  offset="0.0123" style="stop-color:#31225D"/>
					<stop  offset="0.0849" style="stop-color:#492A6D"/>
					<stop  offset="0.1681" style="stop-color:#5C317B"/>
					<stop  offset="0.2651" style="stop-color:#6B3786"/>
					<stop  offset="0.3845" style="stop-color:#763C8F"/>
					<stop  offset="0.5509" style="stop-color:#7D3F96"/>
					<stop  offset="1" style="stop-color:#7F4098"/>
				</linearGradient>
				<polygon class="st15" points="17.55,76.46 -1.03,34.54 43.58,14.77 62.16,56.7 				"/>
			</g>
		</g>
	</g>
</g>
</svg>
