<?xml version="1.0" encoding="utf-8"?>
<!-- Generator: Adobe Illustrator 24.0.2, SVG Export Plug-In . SVG Version: 6.00 Build 0)  -->
<svg version="1.1" id="Layer_1" xmlns="http://www.w3.org/2000/svg" xmlns:xlink="http://www.w3.org/1999/xlink" x="0px" y="0px"
	 viewBox="0 0 102 101" style="enable-background:new 0 0 102 101;" xml:space="preserve">
<style type="text/css">
	.st0{fill:url(#SVGID_1_);}
	.st1{fill:url(#SVGID_2_);}
	.st2{fill:#FFFFFF;}
</style>
<linearGradient id="SVGID_1_" gradientUnits="userSpaceOnUse" x1="50.9642" y1="1.6193" x2="50.9642" y2="102.05" gradientTransform="matrix(1 0 0 -1 0 102)">
	<stop  offset="0" style="stop-color:#002D75"/>
	<stop  offset="1" style="stop-color:#1C85B1"/>
</linearGradient>
<path class="st0" d="M50.9,0c22.2-0.7,51.6,18.1,51,49.9c-0.5,27.8-22.7,50.4-50.7,50.5C23.1,100.5,0.6,77.9,0,50
	C-0.6,18.5,28.4-0.7,50.9,0z"/>
<linearGradient id="SVGID_2_" gradientUnits="userSpaceOnUse" x1="50.9642" y1="3.4109" x2="50.9642" y2="100.2584" gradientTransform="matrix(1 0 0 -1 0 102)">
	<stop  offset="0" style="stop-color:#004275"/>
	<stop  offset="1" style="stop-color:#1C71A1"/>
</linearGradient>
<path class="st1" d="M50.9,1.8c21.4-0.7,49.7,17.4,49.2,48.1c-0.5,26.8-21.9,48.6-48.8,48.7C24.1,98.7,2.4,76.9,1.8,50
	C1.2,19.6,29.2,1.2,50.9,1.8z"/>
<g>
	<path class="st2" d="M32,28.5c-3.2,0-5.4-1.9-5.4-6.2v-2c0-4.4,2.2-6.2,5.4-6.2c3.2,0,5.4,1.9,5.4,6.2v2
		C37.4,26.6,35.2,28.5,32,28.5z M29.4,22.3c0,2.7,0.9,3.8,2.5,3.8s2.5-1.1,2.5-3.8v-2c0-2.7-0.9-3.8-2.5-3.8c-1.6,0-2.5,1.1-2.5,3.8
		V22.3z"/>
	<path class="st2" d="M41.2,14.2l3.1,9.5l3.1-9.5h3.1l-4.9,14.1H43l-4.9-14.1C38.1,14.2,41.2,14.2,41.2,14.2z"/>
	<path class="st2" d="M60.7,14.2v2.4h-5.9v3.2h5.3v2.4h-5.3v3.7h5.9v2.4h-8.8V14.2H60.7z"/>
	<path class="st2" d="M70.4,28.3l-2.5-5.5h-2.3v5.5h-2.9V14.2h5c3.3,0,5.3,1.4,5.3,4.3c0,1.9-0.9,3.1-2.4,3.8l2.9,6H70.4z
		 M67.5,20.4c1.7,0,2.7-0.4,2.7-1.8s-1-1.9-2.7-1.9h-1.9v3.7H67.5z"/>
	<path class="st2" d="M23.3,42.4c-0.5-0.8-1-1.3-1.9-1.5v4c3.1,0.8,4.4,2,4.4,4.7c0,2.3-1.4,4.2-4.3,4.6v2.5h-2.6v-2.5
		c-2-0.3-3.5-1.1-4.6-2.6l2.4-1.7c0.6,0.8,1.3,1.3,2.3,1.5v-4.1c-2.9-0.8-4.3-2.3-4.3-4.8c0-2.2,1.3-4,4.2-4.4v-2.7h2.6v2.7
		c1.8,0.3,3.2,1.1,4.1,2.5L23.3,42.4z M19,44.1v-3.2c-0.7,0.3-1.1,0.8-1.1,1.6S18.3,43.7,19,44.1z M21.4,48v3.3
		c0.9-0.3,1.3-0.9,1.3-1.6C22.6,49,22.3,48.4,21.4,48z"/>
	<path class="st2" d="M39.3,63.2h-5.5V41.9L30,44.5v-5.3l4.4-3h4.9V63.2z"/>
	<path class="st2" d="M63,55c0,6.1-4.2,8.6-9.1,8.6S44.8,61,44.8,55V44.5c0-6.3,4.2-8.6,9.1-8.6s9.1,2.3,9.1,8.6V55z M53.9,40.5
		c-2.5,0-3.6,1.6-3.6,4.5v9.6c0,2.9,1.2,4.5,3.6,4.5c2.4,0,3.6-1.6,3.6-4.5v-9.6C57.5,42,56.3,40.5,53.9,40.5z"/>
	<path class="st2" d="M84.2,55c0,6.1-4.2,8.6-9.1,8.6S66,61,66,55V44.5c0-6.3,4.2-8.6,9.1-8.6s9.1,2.3,9.1,8.6
		C84.1,44.4,84.1,55,84.2,55z M75.1,40.5c-2.5,0-3.7,1.6-3.7,4.5v9.6c0,2.9,1.2,4.5,3.7,4.5c2.4,0,3.6-1.6,3.6-4.5v-9.6
		C78.7,42,77.5,40.5,75.1,40.5z"/>
	<path class="st2" d="M21,70.6l3.1,9.5l3.1-9.5h3.1l-4.9,14.1h-2.6l-4.9-14.1H21z"/>
	<path class="st2" d="M29.4,84.7l4.9-14.1h2.7L42,84.7h-3L38.1,82h-4.7l-0.9,2.7H29.4z M34.1,79.6h3.2l-1.6-5L34.1,79.6z"/>
	<path class="st2" d="M46.1,82.3h5.9v2.4h-8.8V70.6h2.9V82.3z"/>
	<path class="st2" d="M64.4,70.6V79c0,4.2-2.3,5.9-5.4,5.9s-5.4-1.7-5.4-5.9v-8.4h2.9V79c0,2.4,0.8,3.5,2.5,3.5s2.5-1.1,2.5-3.5
		v-8.4H64.4z"/>
	<path class="st2" d="M76,70.6V73H70v3.2h5.3v2.4H70v3.7H76v2.4h-8.8V70.6H76z"/>
	<path class="st2" d="M80.5,84.7h-2.8v-2.8h2.8V84.7z M80.4,70.6h-2.6v10.2h2.6V70.6z"/>
</g>
</svg>
