<?xml version="1.0" encoding="utf-8"?>
<!-- Generator: Adobe Illustrator 24.0.2, SVG Export Plug-In . SVG Version: 6.00 Build 0)  -->
<svg version="1.1" xmlns="http://www.w3.org/2000/svg" xmlns:xlink="http://www.w3.org/1999/xlink" x="0px" y="0px"
	 viewBox="0 0 347 68" style="enable-background:new 0 0 347 68;" xml:space="preserve">
<style type="text/css">
	.st0{fill:#003366;}
	.st1{fill:#FFFFFF;}
	.st2{display:none;fill:#0FF741;}
</style>
<g id="Layer_2">
	<rect x="0.6" y="16.4" class="st0" width="345.9" height="40.5"/>
</g>
<g id="Layer_3">
	<g>
		<polygon class="st1" points="221.9,39.2 221.8,39.2 216.6,24.4 213.3,24.4 213.3,48.9 216.7,48.9 216.7,34.2 216.8,34.2 
			222.1,48.9 225.3,48.9 225.3,24.4 221.9,24.4 		"/>
		<polygon class="st1" points="104.9,17.5 104.9,26.7 111.5,22.3 111.5,59.4 121,59.4 121,12.3 112.5,12.3 		"/>
		<path class="st1" d="M144.2,11.7c-8.3,0-15.6,3.9-15.6,15V45c0,10.6,7.3,15,15.6,15v0c8.3,0,15.6-4.4,15.6-15V26.6
			C159.7,15.7,152.5,11.7,144.2,11.7z M150.3,44.2c0,5-1.9,7.8-6.2,7.8c-4.2,0-6.2-2.7-6.2-7.8V27.6c0-5,2.1-7.8,6.2-7.8
			c4.2,0,6.2,2.7,6.2,7.8V44.2z"/>
		<rect x="206.6" y="24.4" class="st1" width="3.4" height="24.5"/>
		<path class="st1" d="M90.5,23.3v-6.9c1.4,0.4,2.5,1.4,3.3,2.6l4.1-3c-1.6-2.4-4.1-4.1-7-4.4V6.9h-4.5v4.7
			c-4.9,0.6-7.1,3.8-7.1,7.6c0,4.4,2.5,6.9,7.4,8.3v7.2c-1.6-0.4-3.1-1.3-4-2.7l-4.2,3c1.9,2.5,4.7,4.2,7.9,4.5v4.5h4.5v-4.4
			c5-0.7,7.3-3.9,7.3-8C98.2,26.9,95.8,24.8,90.5,23.3z M86.6,22c-1.2-0.4-2-1.6-2-2.8c-0.1-1.2,0.7-2.4,1.9-2.8h0.1V22z M90.5,34.6
			L90.5,34.6l0-5.8c1.6,0.8,2.2,1.7,2.2,3C92.7,33.1,91.8,34.3,90.5,34.6z"/>
		<path class="st1" d="M180.4,11.7c-8.3,0-15.6,3.9-15.6,15V45c0,10.6,7.3,15,15.6,15h0c8.3,0,15.6-4.4,15.6-15V26.6
			C196,15.6,188.7,11.7,180.4,11.7z M186.6,44.2c0,5-1.9,7.8-6.2,7.8c-4.2,0-6.2-2.7-6.2-7.8V27.5c0-5,2.1-7.8,6.2-7.8
			c4.2,0,6.2,2.7,6.2,7.8V44.2z"/>
		<polygon class="st1" points="37.6,41.5 37.5,41.5 34.8,24.4 31.2,24.4 36.1,48.9 39.1,48.9 44,24.4 40.4,24.4 		"/>
		<path class="st2" d="M0,0v68h347V0H0z M71.9,51.7c-0.3,0.1-0.6,0.1-0.9,0.1h-3.6c-1.1,0-2.1-0.6-2.6-1.6c-0.5,1-1.5,1.6-2.6,1.6
			h-3.4c-0.4,0-0.8-0.1-1.1-0.2c-0.4,0.1-0.7,0.2-1.1,0.2H46.1c-1.7,0-3-1.3-3-3v-4.7L42,49.5c-0.3,1.4-1.5,2.4-2.9,2.4h-3
			c-1.4,0-2.7-1-2.9-2.4l-0.7-3.3c-0.1,0.3-0.2,0.6-0.3,0.8c-0.5,1.1-1.2,2.1-2.1,2.9c-0.8,0.7-1.8,1.3-2.8,1.7
			c-2,0.7-4.2,0.7-6.2,0H21c-1-0.4-2-1-2.8-1.7c-0.9-0.8-1.6-1.8-2.1-2.8c-0.5-1.2-0.8-2.5-0.8-3.9v-13c0-1.3,0.2-2.6,0.8-3.8
			c0.5-1.1,1.2-2.1,2.1-2.9c0.8-0.7,1.8-1.3,2.8-1.7c2-0.7,4.2-0.7,6.2,0c0.6,0.2,1.1,0.5,1.6,0.8c0.6-0.7,1.4-1.1,2.3-1.1h3.7
			c1.2,0,2.3,0.8,2.8,1.9c0.4-1.2,1.6-1.9,2.8-1.9H44c0.3,0,0.7,0.1,1,0.2c0.3-0.1,0.7-0.2,1-0.2h10.4c0.4,0,0.8,0.1,1.1,0.2
			c0.4-0.1,0.7-0.2,1.1-0.2h5.5c2.6-0.1,5.1,0.9,6.9,2.9c1.6,2.1,2.4,4.7,2.2,7.3c0,1.7-0.3,3.3-0.9,4.9c-0.4,0.9-0.9,1.7-1.6,2.3
			l3.1,9.2C74.4,49.5,73.5,51.2,71.9,51.7z M101.2,31.5c0.2,4.7-2.8,9-7.3,10.3v2c0,1.7-1.3,3-3,3h-4.5h0c-1.7,0-3-1.3-3-3v-2
			c-2.9-0.8-5.5-2.6-7.3-5.1c-0.4-0.5-0.6-1.1-0.5-1.8c0-0.2,0-0.3,0-0.5c0.1-0.8,0.6-1.5,1.2-2l4.2-3c0.4-0.3,0.9-0.5,1.4-0.5
			c-1.3-0.6-2.4-1.5-3.4-2.5c-1.8-2-2.7-4.6-2.6-7.3c-0.2-4.6,2.8-8.7,7.1-10V6.9c0-1.7,1.3-3,3-3h4.5c1.7,0,3,1.3,3,3v2.4
			c2.7,0.9,5,2.7,6.6,5.1c0.9,1.3,0.5,3.1-0.8,4l-4.1,3c-0.2,0.1-0.3,0.2-0.5,0.3c1.3,0.6,2.5,1.4,3.4,2.4
			C100.4,26.2,101.3,28.8,101.2,31.5z M124,59.4c0,1.7-1.3,3-3,3h-9.4h0c-1.7,0-3-1.3-3-3V27.9l-2,1.3c-1.4,0.9-3.2,0.6-4.2-0.8
			c-0.3-0.5-0.5-1.1-0.5-1.7v-9.2c0-1,0.5-1.9,1.3-2.5l7.6-5.2c0.5-0.3,1.1-0.5,1.7-0.5h8.5c1.7,0,3,1.3,3,3V59.4z M198.9,45
			c0,5.8-2,10.6-5.7,13.8c-7.6,5.7-18.1,5.7-25.7,0l0.1,0c-2.7-2.4-4.6-5.6-5.3-9.2c-0.7,3.6-2.5,6.8-5.3,9.2
			c-7.6,5.7-18.1,5.7-25.7,0c-3.7-3.2-5.7-8-5.7-13.8V26.7c0-2.8,0.5-5.6,1.5-8.2c0.9-2.2,2.4-4.2,4.3-5.8c3.2-2.6,7.6-4.1,12.8-4.1
			c5.2,0,9.6,1.4,12.8,4c1.9,1.6,3.3,3.5,4.3,5.8c0.5,1.1,0.8,2.3,1,3.5c0.2-1.2,0.6-2.3,1-3.4c0.9-2.2,2.4-4.2,4.3-5.8
			c3.2-2.7,7.6-4.1,12.8-4.1c5.2,0,9.6,1.4,12.8,4c1.9,1.6,3.3,3.5,4.3,5.8c1,2.6,1.5,5.4,1.5,8.1V45z M228.3,48.9c0,1.7-1.3,3-3,3
			H222c-1.1,0-2.2-0.6-2.7-1.6c-0.5,1-1.5,1.6-2.7,1.6h-3.5c-0.6,0-1.1-0.2-1.6-0.5c-0.5,0.3-1,0.5-1.6,0.5h-3.5c-1.7,0-3-1.3-3-3
			V24.4c0-1.7,1.3-3,3-3h3.5c0.6,0,1.1,0.2,1.6,0.5c0.5-0.3,1-0.5,1.6-0.5h3.3c1.1,0,2.1,0.6,2.6,1.6c0.5-1,1.5-1.6,2.6-1.6h3.5
			c1.7,0,3,1.3,3,3V48.9z M332.5,24.6L331.2,43c0,0.1,0,0.1,0,0.2c0.6,0.6,0.9,1.3,0.9,2.2v3.5c0,1.7-1.3,3-3,3h-3.5
			c-1.4,0-2.5-0.9-2.9-2.2c-0.7,0.7-1.4,1.2-2.2,1.6c-1.3,0.6-2.7,0.9-4.1,0.8c-1.2,0-2.4-0.2-3.5-0.7l0,0c-1.1-0.4-2.1-1-2.9-1.8
			c-0.3-0.3-0.5-0.6-0.8-0.8c-0.3,0.4-0.6,0.8-1,1.1c-0.8,0.7-1.8,1.3-2.8,1.7c-2,0.7-4.2,0.7-6.2,0c-1-0.4-1.9-0.9-2.8-1.6
			c-0.4,1.2-1.6,2-2.8,2h-3.3c-1.1,0-2.2-0.6-2.7-1.6c-0.5,1-1.5,1.6-2.7,1.6h-3.5c-0.6,0-1.1-0.2-1.6-0.5c-0.5,0.3-1,0.5-1.6,0.5
			h-3.5c-1.7,0-3-1.3-3-3v-5.2l-1.2,5.8c-0.3,1.4-1.5,2.4-2.9,2.4h-3c-0.8,0-1.5-0.3-2.1-0.8c-0.6,0.5-1.3,0.8-2.1,0.8h-3.5
			c-1.4,0-2.7-1-3-2.4l-0.4-2.2l-0.4,2.2c-0.3,1.4-1.5,2.4-2.9,2.4H247c-0.8,0-1.7-0.4-2.2-1c-0.2,0.1-0.4,0.2-0.6,0.3
			c-1.3,0.6-2.7,0.9-4.1,0.9c-1.2,0-2.4-0.2-3.5-0.7c-2.1-0.9-3.8-2.5-4.7-4.7c-0.5-1.1-0.7-2.3-0.7-3.5V42c0-1.7,1.3-3,3-3h0.9
			c-1.2-0.7-2.1-1.8-2.8-3c-0.8-1.6-1.1-3.4-1.1-5.2c0-1.2,0.2-2.4,0.5-3.5c0.3-1.2,0.9-2.2,1.6-3.2c0.8-0.9,1.8-1.7,2.9-2.2
			c1.2-0.6,2.6-0.8,3.9-0.8c1.2,0,2.5,0.2,3.6,0.8c1,0.5,2,1.1,2.8,1.9c0.8,0.8,1.4,1.7,1.8,2.7c0.1,0.3,0.2,0.6,0.3,0.9l0.8-3.7
			c0.3-1.4,1.5-2.4,2.9-2.4h2.9c0.9,0,1.8,0.4,2.3,1.1c0.6-0.7,1.4-1.1,2.3-1.1h3.7c1.2,0,2.3,0.8,2.8,1.9c0.4-1.2,1.6-1.9,2.8-1.9
			h3.7c0.7,0.3,1.5,0.3,2.2,0h3.5c0.6,0,1.1,0.2,1.6,0.5c0.5-0.3,1-0.5,1.6-0.5h3.3c1.1,0,2.1,0.6,2.6,1.6c0.5-1,1.5-1.6,2.6-1.6
			h3.5c1.3,0,2.4,0.8,2.8,2c0.8-0.7,1.7-1.3,2.8-1.6c2-0.7,4.2-0.7,6.2,0c1,0.4,2,1,2.8,1.7c0.4,0.4,0.8,0.8,1.2,1.3
			c0.1-0.2,0.2-0.3,0.4-0.5c0.8-0.9,1.8-1.7,2.9-2.2c1.2-0.6,2.6-0.8,3.9-0.8c1.2,0,2.5,0.2,3.6,0.8c0.8,0.4,1.5,0.8,2.2,1.4
			c0.4-1.2,1.6-1.9,2.8-2h4.3c1.7,0,3,1.3,3,3C332.5,24.4,332.5,24.5,332.5,24.6z"/>
		<polygon class="st1" points="49.6,38.2 55.6,38.2 55.6,34.9 49.6,34.9 49.6,27.7 56.4,27.7 56.4,24.4 46.1,24.4 46.1,48.9 
			56.4,48.9 56.4,45.4 49.6,45.4 		"/>
		<path class="st1" d="M69.6,35.2c0.5-1.2,0.7-2.4,0.7-3.7c0-4.8-2-7.2-6.1-7.2h-5.5v24.5h3.4V38.4h2.1l3.2,10.5H71l-3.7-11.2
			C68.3,37.2,69.2,36.3,69.6,35.2z M66.8,33.1c-0.1,0.4-0.2,0.8-0.4,1.2c-0.2,0.3-0.5,0.6-0.8,0.7c-0.5,0.2-1,0.3-1.5,0.3h-2v-7.7
			h1.8c0.5,0,1,0.1,1.5,0.2c0.4,0.1,0.7,0.4,0.9,0.7c0.2,0.4,0.4,0.8,0.4,1.2h0C66.9,30.9,66.9,32,66.8,33.1z"/>
		<path class="st1" d="M28,25.7c-0.5-0.5-1.2-0.9-1.8-1.1c-1.3-0.5-2.8-0.5-4.2,0c-0.7,0.2-1.3,0.6-1.9,1.1c-0.6,0.5-1,1.2-1.3,1.9
			c-0.4,0.8-0.5,1.7-0.5,2.6v13c0,0.9,0.2,1.8,0.5,2.6c0.3,0.7,0.8,1.3,1.3,1.9c0.5,0.5,1.2,0.9,1.9,1.1c1.3,0.5,2.8,0.5,4.2,0
			c0.7-0.3,1.3-0.6,1.9-1.1c0.6-0.5,1.1-1.1,1.4-1.9l0,0.1c0.4-0.8,0.5-1.7,0.5-2.6v-13c0-0.9-0.2-1.8-0.5-2.6
			C29,26.8,28.6,26.2,28,25.7z M26.4,43.2c0.1,0.7-0.2,1.4-0.7,1.9c-0.9,0.8-2.3,0.8-3.3,0c-0.5-0.5-0.8-1.2-0.7-1.9v-13
			c-0.1-0.7,0.2-1.4,0.7-1.9c0.9-0.8,2.3-0.8,3.3,0c0.5,0.5,0.8,1.2,0.7,1.9V43.2z"/>
		<path class="st1" d="M301.9,38.5h2.7v4.7c0.1,0.7-0.2,1.4-0.7,1.9c-0.9,0.8-2.3,0.8-3.3,0c-0.5-0.5-0.8-1.2-0.7-1.9v-13
			c-0.1-0.7,0.2-1.4,0.7-1.9c0.9-0.8,2.3-0.8,3.3,0c0.5,0.5,0.8,1.2,0.7,1.9v1.2h3.5v-1.2c0-0.9-0.2-1.8-0.5-2.6
			c-0.3-0.7-0.8-1.4-1.3-1.9c-0.5-0.5-1.2-0.9-1.9-1.1c-1.3-0.5-2.8-0.5-4.2,0c-0.7,0.3-1.3,0.6-1.9,1.1c-0.6,0.5-1,1.2-1.3,1.9
			c-0.4,0.8-0.5,1.7-0.5,2.6v13c0,0.9,0.2,1.8,0.5,2.6c0.3,0.7,0.8,1.4,1.4,1.9c0.5,0.5,1.2,0.9,1.9,1.1c1.3,0.5,2.8,0.5,4.2,0
			c0.7-0.3,1.3-0.6,1.9-1.1c0.6-0.5,1-1.2,1.3-1.9c0.4-0.8,0.5-1.7,0.5-2.6v-7.7h-6.2V38.5z"/>
		<path class="st1" d="M320.8,26c-0.5-0.5-1.1-1-1.8-1.3c-0.7-0.3-1.5-0.5-2.4-0.5c-0.9,0-1.8,0.2-2.6,0.5c-0.7,0.3-1.3,0.8-1.8,1.4
			c-0.5,0.6-0.9,1.4-1.1,2.1c-0.3,0.9-0.4,1.7-0.4,2.6c0,1.3,0.2,2.6,0.8,3.8c0.7,1.2,1.7,2,3,2.5l2.5,1c0.3,0.1,0.7,0.3,1,0.5
			c0.3,0.2,0.5,0.4,0.6,0.6c0.2,0.3,0.3,0.7,0.3,1c0.1,0.5,0.1,1.1,0.1,1.6c0,0.6,0,1.1-0.1,1.5c0,0.4-0.1,0.8-0.3,1.2
			c-0.2,0.3-0.4,0.6-0.8,0.7c-0.4,0.2-0.9,0.3-1.4,0.3c-0.7,0.1-1.4-0.2-1.9-0.8c-0.4-0.5-0.6-1.1-0.6-1.7V42h-3.5v1.2
			c0,1.6,0.6,3,1.7,4.2c0.5,0.5,1.2,0.9,1.9,1.2c0.7,0.3,1.5,0.5,2.3,0.5c1,0,1.9-0.2,2.8-0.5c0.7-0.3,1.4-0.9,1.8-1.5
			c0.5-0.7,0.8-1.4,1-2.2c0.2-0.9,0.3-1.9,0.3-2.9c0-0.8,0-1.6-0.1-2.4c-0.1-0.6-0.2-1.3-0.5-1.9c-0.3-0.5-0.6-1-1.1-1.4
			c-0.6-0.4-1.2-0.8-1.9-1l-2.6-1.1c-0.4-0.1-0.7-0.3-1.1-0.5c-0.2-0.2-0.4-0.4-0.6-0.6c-0.1-0.3-0.2-0.6-0.3-0.9c0-0.3,0-0.7,0-1.2
			c0-0.4,0-0.8,0.1-1.2c0.1-0.4,0.2-0.7,0.4-1c0.2-0.3,0.4-0.5,0.7-0.7c0.4-0.2,0.8-0.3,1.2-0.3c0.7-0.1,1.5,0.3,1.9,0.9
			c0.4,0.6,0.6,1.3,0.6,2.1l0,0v0.8h3.5v-1.7c0-0.7-0.1-1.4-0.4-2C321.7,27.1,321.3,26.5,320.8,26z"/>
		<polygon class="st1" points="290.2,39.2 290.1,39.2 284.9,24.4 281.5,24.4 281.5,48.9 285,48.9 285,34.2 285.1,34.2 290.3,48.9 
			293.6,48.9 293.6,24.4 290.2,24.4 		"/>
		<rect x="274.9" y="24.4" class="st1" width="3.5" height="24.5"/>
		<polygon class="st1" points="326.5,42.8 328.2,42.8 329.5,24.4 325.2,24.4 		"/>
		<polygon class="st1" points="266.3,41.5 266.3,41.5 263.5,24.4 259.8,24.4 264.8,48.9 267.7,48.9 272.7,24.4 269,24.4 		"/>
		<polygon class="st1" points="329,48.9 329.1,48.9 329,48.9 		"/>
		<polygon class="st1" points="311.1,38.8 311.1,39 311.4,39 311.4,39 		"/>
		<rect x="325.6" y="45.4" class="st1" width="3.4" height="3.5"/>
		<path class="st1" d="M246.5,34.4c0.1,0.1,0.3,0.3,0.4,0.4l0.1-0.6C246.9,34.3,246.7,34.3,246.5,34.4z"/>
		<path class="st1" d="M244.3,26c-0.5-0.5-1.1-1-1.8-1.3c-0.7-0.3-1.5-0.5-2.4-0.5c-0.9,0-1.8,0.2-2.6,0.5c-0.7,0.3-1.3,0.8-1.8,1.4
			c-0.5,0.6-0.9,1.4-1.1,2.1c-0.3,0.9-0.4,1.7-0.4,2.6c0,1.3,0.2,2.6,0.8,3.8c0.7,1.2,1.7,2,3,2.5l2.5,1c0.3,0.1,0.7,0.3,1,0.5
			c0.3,0.2,0.5,0.4,0.6,0.6c0.2,0.3,0.3,0.7,0.3,1c0.1,0.5,0.1,1.1,0.1,1.6c0,0.6,0,1.1-0.1,1.5c0,0.4-0.1,0.8-0.3,1.2
			c-0.2,0.3-0.4,0.6-0.8,0.7c-0.4,0.2-0.9,0.3-1.4,0.3c-0.7,0.1-1.4-0.2-1.9-0.8c-0.4-0.5-0.6-1.1-0.6-1.7V42H234v1.3
			c0,1.6,0.6,3.1,1.7,4.2c0.5,0.5,1.2,0.9,1.9,1.2c0.7,0.3,1.5,0.5,2.3,0.5c1,0,1.9-0.2,2.8-0.5c0.7-0.3,1.4-0.9,1.8-1.5
			c0.5-0.7,0.8-1.5,1-2.3c0.2-0.9,0.3-1.9,0.3-2.9c0-0.8,0-1.6-0.1-2.4c-0.1-0.6-0.2-1.3-0.5-1.9c-0.3-0.5-0.6-1-1.1-1.4
			c-0.6-0.4-1.2-0.8-1.9-1l-2.6-1.1c-0.4-0.1-0.7-0.3-1.1-0.5c-0.2-0.2-0.4-0.4-0.6-0.6c-0.1-0.3-0.2-0.6-0.3-0.9c0-0.3,0-0.7,0-1.2
			c0-0.4,0-0.8,0.1-1.2c0.1-0.4,0.2-0.7,0.4-1c0.2-0.3,0.4-0.5,0.7-0.7c0.4-0.2,0.8-0.3,1.2-0.3c0.7-0.1,1.5,0.3,1.9,0.9
			c0.4,0.6,0.6,1.3,0.6,2.1l0,0v0.8h3.4v-1.7c0-0.7-0.1-1.4-0.4-2C245.2,27.1,244.8,26.5,244.3,26z"/>
		<path class="st1" d="M252.3,24.4L247,48.9h3.4l1-5.3h4.7l1,5.3h3.5l-5.4-24.5H252.3z M252,40.3l1.7-8.9h0.1v0l1.7,8.9H252z"/>
		<polygon class="st1" points="267.8,48.9 267.7,48.9 267.7,48.9 		"/>
		<path class="st0" d="M144.2,19.8c-4.2,0-6.2,2.7-6.2,7.8v16.6c0,5,2,7.8,6.2,7.8c4.2,0,6.2-2.7,6.2-7.8V27.6
			C150.3,22.5,148.3,19.8,144.2,19.8z M146.5,48.1c-0.2,0.2-0.7,0.8-2.3,0.8c-1.2,0-3.2,0-3.2-4.8V27.5c0-4.8,2-4.8,3.2-4.8
			c1.6,0,2.1,0.6,2.3,0.8c0.7,1.2,1,2.6,0.9,3.9v16.7C147.4,45.5,147.1,46.9,146.5,48.1z"/>
		<path class="st0" d="M180.4,19.7c-4.2,0-6.2,2.7-6.2,7.8v16.7c0,5,2,7.8,6.2,7.8c4.2,0,6.2-2.7,6.2-7.8V27.5
			C186.6,22.5,184.6,19.7,180.4,19.7z M182.7,48.1c-0.2,0.2-0.6,0.8-2.3,0.8c-1.2,0-3.2,0-3.2-4.8V27.5c0-4.8,2-4.8,3.2-4.8
			c1.6,0,2.1,0.6,2.3,0.8c0.7,1.2,1,2.6,0.9,3.9v16.7C183.7,45.5,183.4,46.9,182.7,48.1z"/>
		<path class="st0" d="M121,9.3h-8.5c-0.6,0-1.2,0.2-1.7,0.5l-7.6,5.2c-0.8,0.6-1.3,1.5-1.3,2.5v9.2c0,0.6,0.2,1.2,0.5,1.7
			c0.9,1.4,2.8,1.7,4.2,0.8l2-1.3v31.5c0,1.7,1.3,3,3,3h0h9.4c1.7,0,3-1.3,3-3V12.3C124,10.6,122.7,9.3,121,9.3z M121,59.4l-9.5,0
			V22.3l-6.6,4.4v-9.2l7.6-5.2h8.5V59.4z"/>
		<path class="st0" d="M84.6,19.2c0,1.3,0.8,2.4,2,2.8v-5.6h-0.1C85.3,16.8,84.6,17.9,84.6,19.2z"/>
		<path class="st0" d="M66.8,29.8c-0.1-0.4-0.2-0.8-0.4-1.2c-0.2-0.3-0.5-0.6-0.9-0.7c-0.5-0.2-1-0.3-1.5-0.2h-1.8v7.7h2
			c0.5,0,1-0.1,1.5-0.3c0.3-0.2,0.6-0.4,0.8-0.7c0.2-0.4,0.3-0.8,0.4-1.2C66.9,32,66.9,30.9,66.8,29.8L66.8,29.8z"/>
		<path class="st0" d="M90.5,28.8v5.8l0,0c1.3-0.3,2.2-1.5,2.2-2.8C92.7,30.5,92.2,29.6,90.5,28.8z"/>
		<path class="st0" d="M22.5,28.3c-0.5,0.5-0.8,1.2-0.7,1.9v13c-0.1,0.7,0.2,1.4,0.7,1.9c0.9,0.8,2.3,0.8,3.3,0
			c0.5-0.5,0.8-1.2,0.7-1.9v-13c0.1-0.7-0.2-1.4-0.7-1.9C24.8,27.5,23.4,27.5,22.5,28.3z"/>
		<path class="st0" d="M70.8,38.8c0.7-0.7,1.2-1.5,1.6-2.3c0.6-1.5,0.9-3.2,0.9-4.9c0.2-2.6-0.6-5.2-2.2-7.3c-1.7-1.9-4.3-3-6.9-2.9
			h-5.5c-0.4,0-0.8,0.1-1.1,0.2c-0.4-0.1-0.7-0.2-1.1-0.2H46c-0.3,0-0.7,0.1-1,0.2c-0.3-0.1-0.7-0.2-1-0.2h-3.7
			c-1.2,0-2.4,0.8-2.8,1.9c-0.4-1.2-1.6-1.9-2.8-1.9h-3.7c-0.9,0-1.8,0.4-2.3,1.1c-0.5-0.3-1-0.6-1.6-0.8c-2-0.7-4.2-0.7-6.2,0
			c-1,0.4-2,0.9-2.8,1.7c-0.9,0.8-1.6,1.8-2.1,2.9c-0.5,1.2-0.8,2.5-0.8,3.8v13c0,1.3,0.2,2.7,0.8,3.9c0.5,1.1,1.2,2,2.1,2.8
			c0.8,0.7,1.8,1.3,2.8,1.7h-0.1c2,0.7,4.2,0.7,6.2,0c1-0.4,2-1,2.8-1.7c0.9-0.8,1.6-1.8,2.1-2.9c0.1-0.3,0.2-0.6,0.3-0.8l0.7,3.3
			c0.3,1.4,1.5,2.4,2.9,2.4h3c1.4,0,2.7-1,2.9-2.4l1.1-5.3v4.7c0,1.7,1.3,3,3,3h10.3c0.4,0,0.8-0.1,1.1-0.2c0.4,0.1,0.7,0.2,1.1,0.2
			h3.4c1.1,0,2.1-0.6,2.6-1.6c0.5,1,1.5,1.6,2.6,1.6H71c0.3,0,0.6,0,0.9-0.1c1.6-0.5,2.4-2.2,1.9-3.8L70.8,38.8z M29.8,43.2
			c0,0.9-0.2,1.8-0.5,2.6l0-0.1c-0.3,0.7-0.8,1.3-1.4,1.9c-0.5,0.5-1.2,0.9-1.9,1.1c-1.3,0.5-2.8,0.5-4.2,0
			c-0.7-0.3-1.3-0.6-1.9-1.1c-0.6-0.5-1-1.2-1.3-1.9c-0.4-0.8-0.5-1.7-0.5-2.6v-13c0-0.9,0.2-1.8,0.5-2.6c0.3-0.7,0.8-1.4,1.3-1.9
			c0.6-0.5,1.2-0.8,1.9-1.1c1.3-0.5,2.8-0.5,4.2,0c0.7,0.3,1.3,0.6,1.8,1.1c0.6,0.5,1,1.2,1.3,1.9c0.4,0.8,0.5,1.7,0.5,2.6V43.2z
			 M39.1,48.9h-3l-5-24.5h3.6l2.7,17.1h0.1l2.8-17.1H44L39.1,48.9z M56.4,48.9H46.1V24.4h10.3v3.3h-6.8v7.2h6v3.3h-6v7.2l6.8,0V48.9
			z M55.6,31.9L55.6,31.9h-3v-1.2h3.1L55.6,31.9L55.6,31.9z M55.6,41.2v1.2h-3v-1.2H55.6z M67.4,48.9l-3.2-10.5h-2.1v10.5h-3.4V24.4
			h5.5c4.1,0,6.1,2.4,6.1,7.2c0,1.3-0.2,2.5-0.7,3.7c-0.5,1.1-1.3,1.9-2.3,2.5L71,48.9H67.4z"/>
		<path class="st0" d="M193.2,12.6c-3.2-2.6-7.6-4-12.8-4c-5.2,0-9.6,1.4-12.8,4.1c-1.9,1.6-3.3,3.5-4.3,5.8c-0.4,1.1-0.8,2.3-1,3.4
			c-0.2-1.2-0.6-2.3-1-3.5c-0.9-2.2-2.4-4.2-4.3-5.8c-3.2-2.6-7.6-4-12.8-4c-5.2,0-9.6,1.4-12.8,4.1c-1.9,1.6-3.3,3.5-4.3,5.8
			c-1,2.6-1.5,5.4-1.5,8.2V45c0,5.8,2,10.6,5.7,13.8c7.6,5.7,18.1,5.7,25.7,0c2.8-2.4,4.6-5.6,5.3-9.2c0.7,3.6,2.5,6.8,5.3,9.2
			l-0.1,0c7.6,5.7,18.1,5.7,25.7,0c3.7-3.2,5.7-8,5.7-13.8V26.5c0-2.8-0.5-5.6-1.5-8.1C196.5,16.2,195,14.2,193.2,12.6z M159.7,45
			c0,10.6-7.3,15-15.6,15v0c-8.3,0-15.6-4.4-15.6-15V26.7c0-11.1,7.3-15,15.6-15s15.6,4,15.6,15V45z M196,45c0,10.6-7.3,15-15.6,15
			h0c-8.3,0-15.6-4.4-15.6-15V26.7c0-11.1,7.3-15,15.6-15S196,15.6,196,26.6V45z"/>
		<path class="st0" d="M95,21.8c0.2-0.1,0.4-0.2,0.5-0.3l4.1-3c1.3-0.9,1.6-2.7,0.8-4c-1.5-2.4-3.9-4.2-6.6-5.1V6.9c0-1.7-1.3-3-3-3
			h-4.5c-1.7,0-3,1.3-3,3v2.3c-4.4,1.3-7.3,5.4-7.1,10c-0.1,2.7,0.9,5.3,2.6,7.3c1,1,2.1,1.9,3.4,2.5c-0.5,0.1-1,0.2-1.4,0.5l-4.2,3
			c-0.7,0.5-1.1,1.2-1.2,2c0,0.2,0,0.3,0,0.5c0,0.6,0.2,1.3,0.5,1.8c1.8,2.5,4.3,4.3,7.3,5.1v2c0,1.7,1.3,3,3,3h0h4.5
			c1.7,0,3-1.3,3-3v-2c4.5-1.4,7.5-5.6,7.3-10.3c0.1-2.7-0.8-5.4-2.7-7.4C97.5,23.2,96.3,22.4,95,21.8z M90.8,39.5v4.4h-4.5v-4.5
			c-3.1-0.3-6-1.9-7.9-4.5l4.2-3c0.9,1.4,2.4,2.4,4,2.7v-7.2c-4.9-1.5-7.4-3.9-7.4-8.3c0-3.8,2.2-7,7.1-7.6V6.9h4.5v4.7
			c2.9,0.4,5.4,2,7,4.4l-4.1,3c-0.7-1.3-1.9-2.2-3.3-2.6v6.9c5.2,1.5,7.6,3.5,7.6,8.2C98.2,35.6,95.8,38.8,90.8,39.5z"/>
		<path class="st0" d="M225.3,21.4h-3.5c-1.1,0-2.1,0.6-2.6,1.6c-0.5-1-1.5-1.6-2.6-1.6h-3.3c-0.6,0-1.1,0.2-1.6,0.5
			c-0.5-0.3-1-0.5-1.6-0.5h-3.5c-1.7,0-3,1.3-3,3v24.5c0,1.7,1.3,3,3,3h3.5c0.6,0,1.1-0.2,1.6-0.5c0.5,0.3,1,0.5,1.6,0.5h3.5
			c1.1,0,2.2-0.6,2.7-1.6c0.5,1,1.5,1.6,2.7,1.6h3.3c1.7,0,3-1.3,3-3V24.4C228.3,22.7,226.9,21.4,225.3,21.4z M210,48.9h-3.4V24.4
			h3.4V48.9z M225.3,48.9h-3.3l-5.3-14.7h-0.1v14.7h-3.5V24.4h3.3l5.2,14.8h0.1V24.4h3.4V48.9z"/>
		<path class="st0" d="M329.5,21.4h-4.3c-1.3,0-2.4,0.8-2.8,2c-0.7-0.6-1.4-1-2.2-1.4c-1.1-0.5-2.4-0.8-3.6-0.8
			c-1.3,0-2.7,0.3-3.9,0.8c-1.1,0.5-2.1,1.3-2.9,2.2c-0.1,0.2-0.3,0.3-0.4,0.5c-0.3-0.5-0.7-0.9-1.2-1.3c-0.8-0.7-1.8-1.3-2.8-1.7
			c-2-0.7-4.2-0.7-6.2,0c-1,0.4-1.9,0.9-2.8,1.6c-0.4-1.2-1.6-2-2.8-2h-3.5c-1.1,0-2.1,0.6-2.6,1.6c-0.5-1-1.5-1.6-2.6-1.6h-3.3
			c-0.6,0-1.1,0.2-1.6,0.5c-0.5-0.3-1-0.5-1.6-0.5h-3.5c-0.7,0.3-1.5,0.3-2.2,0H269c-1.2,0-2.4,0.8-2.8,1.9
			c-0.4-1.2-1.6-1.9-2.8-1.9h-3.7c-0.9,0-1.8,0.4-2.3,1.1c-0.6-0.7-1.4-1.1-2.3-1.1h-2.9c-1.4,0-2.6,1-2.9,2.4l-0.8,3.7
			c-0.1-0.3-0.2-0.6-0.3-0.9c-0.4-1-1-1.9-1.8-2.7c-0.8-0.8-1.7-1.5-2.8-1.9c-1.1-0.5-2.4-0.8-3.6-0.8c-1.3,0-2.7,0.3-3.9,0.8
			c-1.1,0.5-2.1,1.3-2.9,2.2c-0.8,0.9-1.3,2-1.6,3.2c-0.3,1.1-0.5,2.3-0.5,3.5c0,1.8,0.3,3.6,1.1,5.2c0.6,1.2,1.6,2.3,2.8,3h-0.9
			c-1.7,0-3,1.3-3,3v1.3c0,1.2,0.2,2.4,0.7,3.5c0.9,2.1,2.6,3.8,4.7,4.7c1.1,0.5,2.3,0.7,3.5,0.7c1.4,0,2.8-0.3,4.1-0.9
			c0.2-0.1,0.4-0.2,0.6-0.3c0.6,0.6,1.4,1,2.2,1h3.5c1.4,0,2.7-1,2.9-2.4l0.4-2.2l0.4,2.2c0.3,1.4,1.5,2.4,3,2.4h3.5
			c0.8,0,1.5-0.3,2.1-0.8c0.6,0.5,1.3,0.8,2.1,0.8h3c1.4,0,2.7-1,2.9-2.4l1.2-5.8v5.2c0,1.7,1.3,3,3,3h3.5c0.6,0,1.1-0.2,1.6-0.5
			c0.5,0.3,1,0.5,1.6,0.5h3.5c1.1,0,2.2-0.6,2.7-1.6c0.5,1,1.5,1.6,2.7,1.6h3.3c1.3,0,2.4-0.8,2.8-2c0.8,0.7,1.7,1.3,2.8,1.6
			c2,0.7,4.2,0.7,6.2,0c1-0.4,2-1,2.8-1.7c0.4-0.3,0.7-0.7,1-1.1c0.2,0.3,0.5,0.6,0.8,0.8c0.8,0.8,1.8,1.4,2.9,1.8l0,0
			c1.1,0.5,2.3,0.7,3.5,0.7c1.4,0,2.8-0.3,4.1-0.8c0.8-0.4,1.6-0.9,2.2-1.6c0.4,1.3,1.5,2.2,2.9,2.2h3.5c1.7,0,3-1.3,3-3v-3.5
			c0-0.8-0.3-1.6-0.9-2.2c0-0.1,0-0.1,0-0.2l1.3-18.4c0-0.1,0-0.1,0-0.2C332.5,22.7,331.1,21.4,329.5,21.4z M245.9,31.5h-3.4v-0.8
			l0,0c0-0.7-0.2-1.5-0.6-2.1c-0.4-0.6-1.1-0.9-1.9-0.9c-0.4,0-0.8,0.1-1.2,0.3c-0.3,0.2-0.5,0.4-0.7,0.7c-0.2,0.3-0.3,0.6-0.4,1
			c-0.1,0.4-0.1,0.8-0.1,1.2c0,0.5,0,0.9,0,1.2c0,0.3,0.1,0.6,0.3,0.9c0.1,0.3,0.3,0.5,0.6,0.6c0.3,0.2,0.7,0.4,1.1,0.5l2.6,1.1
			c0.7,0.2,1.3,0.6,1.9,1c0.5,0.4,0.8,0.9,1.1,1.4c0.3,0.6,0.4,1.2,0.5,1.9c0.1,0.8,0.1,1.6,0.1,2.4c0,1-0.1,1.9-0.3,2.9
			c-0.2,0.8-0.5,1.6-1,2.3c-0.5,0.6-1.1,1.2-1.8,1.5c-0.9,0.4-1.8,0.6-2.8,0.5c-0.8,0-1.6-0.1-2.3-0.5c-0.7-0.3-1.3-0.7-1.9-1.2
			c-1.1-1.1-1.7-2.6-1.7-4.2V42h3.5v1.1c0,0.6,0.2,1.2,0.6,1.7c0.5,0.6,1.2,0.9,1.9,0.8c0.5,0,0.9-0.1,1.4-0.3
			c0.3-0.2,0.6-0.4,0.8-0.7c0.2-0.4,0.3-0.7,0.3-1.2c0-0.5,0.1-1,0.1-1.5c0-0.5,0-1.1-0.1-1.6c0-0.3-0.1-0.7-0.3-1
			c-0.1-0.3-0.4-0.5-0.6-0.6c-0.3-0.2-0.7-0.4-1-0.5l-2.5-1c-1.3-0.4-2.3-1.3-3-2.5c-0.5-1.2-0.8-2.5-0.8-3.8c0-0.9,0.1-1.8,0.4-2.6
			c0.2-0.8,0.6-1.5,1.1-2.1c0.5-0.6,1.1-1.1,1.8-1.4c0.8-0.4,1.7-0.6,2.6-0.5c0.8,0,1.6,0.2,2.4,0.5c0.7,0.3,1.3,0.7,1.8,1.3
			c0.5,0.5,0.9,1.1,1.2,1.8c0.3,0.6,0.4,1.3,0.4,2V31.5z M246.5,34.4c0.2,0,0.4-0.1,0.5-0.2l-0.1,0.6
			C246.8,34.6,246.6,34.5,246.5,34.4z M257.1,48.9l-1-5.3h-4.7l-1,5.3H247l5.4-24.5h2.9l5.4,24.5H257.1z M267.7,48.9L267.7,48.9
			L267.7,48.9L267.7,48.9h-3l-4.9-24.5h3.7l2.7,17.1h0.1l2.7-17.1h3.7L267.7,48.9z M278.3,48.9h-3.5V24.4h3.5V48.9z M293.6,48.9
			h-3.3l-5.3-14.7H285v14.7h-3.5V24.4h3.3l5.2,14.8h0.1V24.4h3.5V48.9z M308.1,43.1c0,0.9-0.2,1.8-0.5,2.6c-0.3,0.7-0.8,1.3-1.3,1.9
			c-0.5,0.5-1.2,0.9-1.9,1.1c-1.3,0.5-2.8,0.5-4.2,0c-0.7-0.3-1.3-0.6-1.9-1.1c-0.6-0.5-1-1.2-1.4-1.9c-0.4-0.8-0.5-1.7-0.5-2.6v-13
			c0-0.9,0.2-1.8,0.5-2.6c0.3-0.7,0.8-1.4,1.3-1.9c0.5-0.5,1.2-0.9,1.9-1.1c1.3-0.5,2.8-0.5,4.2,0c0.7,0.3,1.3,0.6,1.9,1.1
			c0.6,0.5,1,1.2,1.3,1.9c0.4,0.8,0.5,1.7,0.5,2.6v1.2h-3.5v-1.2c0.1-0.7-0.2-1.4-0.7-1.9c-0.9-0.8-2.3-0.8-3.3,0
			c-0.5,0.5-0.8,1.2-0.7,1.9v13c-0.1,0.7,0.2,1.4,0.7,1.9c0.9,0.8,2.3,0.8,3.3,0c0.5-0.5,0.8-1.2,0.7-1.9v-4.7h-2.7v-3.1h6.2V43.1z
			 M322.3,31.5h-3.5v-0.8l0,0c0-0.7-0.2-1.5-0.6-2.1c-0.4-0.6-1.1-0.9-1.9-0.9c-0.4,0-0.8,0.1-1.2,0.3c-0.3,0.2-0.5,0.4-0.7,0.7
			c-0.2,0.3-0.3,0.6-0.4,1c-0.1,0.4-0.1,0.8-0.1,1.2c0,0.5,0,0.9,0,1.2c0,0.3,0.1,0.6,0.3,0.9c0.1,0.3,0.3,0.5,0.6,0.6
			c0.3,0.2,0.7,0.4,1.1,0.5l2.6,1.1c0.7,0.2,1.3,0.6,1.9,1c0.5,0.4,0.8,0.9,1.1,1.4c0.3,0.6,0.4,1.2,0.5,1.9
			c0.1,0.8,0.1,1.6,0.1,2.4c0,1-0.1,1.9-0.3,2.9c-0.2,0.8-0.5,1.5-1,2.2c-0.5,0.6-1.1,1.2-1.8,1.5c-0.9,0.4-1.8,0.6-2.8,0.5
			c-0.8,0-1.6-0.1-2.3-0.5c-0.7-0.3-1.3-0.7-1.9-1.2c-1.1-1.1-1.7-2.6-1.7-4.2V42h3.5v1.1c0,0.6,0.2,1.2,0.6,1.7
			c0.5,0.6,1.2,0.9,1.9,0.8c0.5,0,0.9-0.1,1.4-0.3c0.3-0.2,0.6-0.4,0.8-0.7c0.2-0.4,0.3-0.7,0.3-1.2c0-0.5,0.1-1,0.1-1.5
			c0-0.5,0-1.1-0.1-1.6c0-0.3-0.1-0.7-0.3-1c-0.1-0.3-0.4-0.5-0.6-0.6c-0.3-0.2-0.7-0.4-1-0.5l-2.5-1c-1.3-0.4-2.3-1.3-3-2.5
			c-0.5-1.2-0.8-2.5-0.8-3.8c0-0.9,0.1-1.8,0.4-2.6c0.2-0.8,0.6-1.5,1.1-2.1c0.5-0.6,1.1-1.1,1.8-1.4c0.8-0.4,1.7-0.6,2.6-0.5
			c0.8,0,1.6,0.2,2.4,0.5c0.7,0.3,1.3,0.7,1.8,1.3c0.5,0.5,0.9,1.1,1.2,1.8c0.3,0.6,0.4,1.3,0.4,2V31.5z M311.1,39v-0.2l0.3,0.2v0
			H311.1z M329,48.9L329,48.9l-3.4,0v-3.5h3.4V48.9L329,48.9L329,48.9z M328.2,42.8h-1.7l-1.3-18.5h4.3L328.2,42.8z"/>
		<polygon class="st0" points="253.8,31.4 253.7,31.4 252,40.3 255.5,40.3 253.8,31.4 		"/>
	</g>
</g>
</svg>
